<svg xmlns="http://www.w3.org/2000/svg" viewBox="0 0 120 120" width="120" height="120" fill="none" stroke="#333333" stroke-width="1.5" stroke-linecap="round" stroke-linejoin="round">
  <!-- Building -->
  <rect x="60" y="15" width="45" height="70" rx="2"/>
  <!-- Building windows row 1 -->
  <rect x="67" y="22" width="8" height="8" rx="1"/>
  <rect x="80" y="22" width="8" height="8" rx="1"/>
  <rect x="93" y="22" width="8" height="8" rx="1"/>
  <!-- Building windows row 2 -->
  <rect x="67" y="36" width="8" height="8" rx="1"/>
  <rect x="80" y="36" width="8" height="8" rx="1"/>
  <rect x="93" y="36" width="8" height="8" rx="1"/>
  <!-- Building windows row 3 -->
  <rect x="67" y="50" width="8" height="8" rx="1"/>
  <rect x="80" y="50" width="8" height="8" rx="1"/>
  <rect x="93" y="50" width="8" height="8" rx="1"/>
  <!-- Building door -->
  <rect x="77" y="68" width="12" height="17" rx="1"/>
  <circle cx="87" cy="77" r="1.2"/>
  <!-- Person head -->
  <circle cx="35" cy="40" r="9"/>
  <!-- Person body -->
  <line x1="35" y1="49" x2="35" y2="72"/>
  <!-- Arms - one waving -->
  <line x1="35" y1="55" x2="22" y2="62"/>
  <line x1="35" y1="55" x2="48" y2="48"/>
  <!-- Legs walking -->
  <line x1="35" y1="72" x2="27" y2="90"/>
  <line x1="35" y1="72" x2="43" y2="90"/>
  <!-- Feet -->
  <line x1="27" y1="90" x2="22" y2="90"/>
  <line x1="43" y1="90" x2="48" y2="90"/>
  <!-- Briefcase -->
  <rect x="14" y="60" width="10" height="8" rx="1.5"/>
  <line x1="17" y1="60" x2="17" y2="58"/>
  <line x1="22" y1="60" x2="22" y2="58"/>
  <line x1="17" y1="58" x2="22" y2="58"/>
  <!-- Ground line -->
  <line x1="5" y1="95" x2="110" y2="95"/>
  <!-- Path/arrow toward building -->
  <line x1="48" y1="88" x2="65" y2="88"/>
  <polyline points="61,85 65,88 61,91"/>
</svg>
