<svg xmlns="http://www.w3.org/2000/svg" viewBox="0 0 120 120" fill="none" stroke="#333333" stroke-width="1.5" stroke-linecap="round" stroke-linejoin="round">
  <!-- Building -->
  <rect x="24" y="40" width="48" height="54" rx="2"/>
  <!-- Building roof -->
  <path d="M20 40 L48 18 L76 40"/>
  <!-- Door -->
  <rect x="40" y="72" width="16" height="22"/>
  <!-- Windows -->
  <rect x="32" y="48" width="10" height="10"/>
  <rect x="56" y="48" width="10" height="10"/>
  <rect x="32" y="64" width="10" height="10"/>
  <rect x="56" y="64" width="10" height="10"/>
  <!-- Location pin -->
  <path d="M88 38 C80 38 74 44 74 52 C74 64 88 78 88 78 C88 78 102 64 102 52 C102 44 96 38 88 38 Z"/>
  <!-- Pin dot -->
  <circle cx="88" cy="52" r="5"/>
  <!-- Ground line -->
  <line x1="16" y1="94" x2="104" y2="94"/>
</svg>
