<svg xmlns="http://www.w3.org/2000/svg" width="640" height="640" viewBox="0 0 640 640" version="1.1">
	<path fill-opacity="0.545" d="M 383.764 123.936 C 375.647 126.558, 369.087 134.051, 368.226 141.685 C 367.767 145.762, 367.614 145.937, 365.121 145.237 C 359.908 143.771, 343.741 144.432, 338 146.344 C 330.929 148.700, 323.554 152.388, 318.500 156.094 C 316.300 157.707, 311.583 160.934, 308.017 163.264 C 296.370 170.875, 290.105 181.997, 289.243 196.591 C 288.674 206.247, 290.313 212.837, 295.369 221.222 C 298.382 226.217, 299.075 228.699, 300.826 240.758 C 303.140 256.696, 305.328 263.642, 310.477 271.400 C 317.289 281.662, 329.599 291, 336.316 291 C 339.544 291, 339.807 292.498, 336.856 294.077 C 335.676 294.708, 332.852 296.939, 330.579 299.034 C 327.656 301.728, 321.850 304.794, 310.744 309.507 C 302.107 313.173, 293.588 317.151, 291.813 318.347 C 283.891 323.686, 281.888 328.488, 264.891 382.886 L 261.646 393.272 252.573 374.886 L 243.500 356.500 239.870 356.197 C 236.437 355.910, 236.156 355.612, 234.682 350.697 C 233.825 347.839, 232.815 343.925, 232.438 342 C 231.055 334.947, 227.420 329.499, 216.177 317.630 C 203.634 304.388, 200.672 302.360, 198.403 305.464 C 195.708 309.149, 197.113 314.313, 202.873 321.889 L 205.449 325.277 202.974 324.537 C 198.784 323.284, 186.364 316.339, 180.792 312.134 C 173.553 306.670, 170.358 305.535, 167.492 307.413 C 166.262 308.220, 164.295 308.628, 163.122 308.322 C 159.129 307.277, 156.138 312.738, 159.087 315.687 C 159.870 316.470, 159.870 316.962, 159.087 317.446 C 157.254 318.579, 157.862 320.774, 161 324.347 C 162.650 326.226, 164 328.425, 164 329.233 C 164 331.989, 174.024 343.951, 180.339 348.731 C 183.804 351.354, 192.292 356.129, 199.201 359.342 C 214.287 366.358, 215.802 368.184, 211.036 373.612 C 206.577 378.690, 206.432 380.749, 209.920 389.460 C 211.614 393.690, 213 397.342, 213 397.576 C 213 397.809, 189.886 398, 161.635 398 C 111.184 398, 110.223 398.037, 107.635 400.073 C 105.951 401.397, 105 403.119, 105 404.845 C 105 406.329, 108.779 420.809, 113.397 437.022 C 118.015 453.235, 123.922 474.150, 126.522 483.500 C 131.615 501.815, 133.035 505.416, 135.545 506.379 C 136.435 506.720, 180.032 507, 232.427 507 C 321.902 507, 327.783 506.894, 329.227 505.250 C 331.752 502.375, 332.236 499.379, 330.463 497.605 C 329.058 496.201, 324.993 496, 297.967 496 L 267.077 496 266.067 492.250 C 265.511 490.188, 264.373 486.250, 263.539 483.500 C 262.704 480.750, 262.017 478.034, 262.011 477.464 C 262.005 476.880, 264.290 476.428, 267.250 476.427 C 270.650 476.426, 274.137 475.632, 277.146 474.174 C 282.872 471.399, 291.301 463.129, 295.014 456.641 C 297.493 452.310, 297.870 452.015, 298.479 453.934 C 299.388 456.798, 299.395 471.608, 298.491 481.251 L 297.765 489 282.883 489 C 270.320 489, 268 489.234, 268 490.500 C 268 491.818, 276.040 492, 334.362 492 L 400.723 492 407.612 495.154 C 419.637 500.661, 434.974 500.106, 440.533 493.964 C 442.735 491.531, 443.943 491.441, 443.405 493.750 C 443.181 494.713, 443.336 499.325, 443.749 504 L 444.500 512.500 448.245 514.330 C 453.229 516.765, 468.750 517.696, 477.184 516.065 C 485.703 514.418, 488 512.825, 488 508.565 C 488 505.394, 488.256 505.133, 491.971 504.505 C 497.096 503.639, 500.787 500.680, 503.104 495.579 C 508.144 484.481, 502.375 471.043, 491.850 469.360 C 488.299 468.792, 488 468.492, 488 465.495 C 488 461.859, 486.795 460.489, 482.692 459.459 C 480.321 458.864, 479.972 458.356, 480.405 456.128 C 480.686 454.683, 482.126 442.250, 483.605 428.500 C 486.197 404.405, 486.234 403.292, 484.621 397.754 C 482.715 391.215, 478.611 385.992, 473.454 383.545 C 467.417 380.681, 465.871 382.286, 471.745 385.320 C 477.554 388.320, 481.198 393.006, 482.963 399.746 C 483.875 403.228, 483.528 408.704, 481.038 430.165 C 479.367 444.560, 478 456.712, 478 457.169 C 478 457.626, 473.470 458, 467.933 458 C 458.805 458, 457.916 457.837, 458.407 456.250 C 458.705 455.287, 459.604 450, 460.405 444.500 C 466.141 405.126, 465.547 357.788, 459.055 336.929 C 455.343 325.001, 451.179 321.695, 423.675 308.836 C 404.961 300.086, 404.345 299.700, 398.043 292.798 C 394.491 288.908, 390.164 285.131, 388.426 284.404 C 385.360 283.124, 385.245 282.849, 384.583 275.255 C 383.849 266.845, 384.373 264, 386.655 264 C 389.187 264, 392.874 268.982, 393.195 272.836 C 393.521 276.754, 395.281 277.488, 395.833 273.938 C 396.413 270.204, 394.967 266.705, 391.486 263.422 L 388.109 260.237 395.995 253.504 C 403.745 246.887, 406.210 243.457, 407.491 237.500 C 407.846 235.850, 409.344 230.675, 410.818 226 C 413.138 218.647, 413.497 215.813, 413.480 205 C 413.461 192.513, 412.770 189.231, 407.551 176.833 C 407.023 175.578, 407.738 174.744, 410.436 173.463 C 421.056 168.424, 425.254 153.923, 419.460 142.296 C 416.520 136.395, 409.195 129.161, 402.921 125.960 C 398.136 123.519, 388.279 122.477, 383.764 123.936 M 337.652 150.991 C 334.986 151.470, 332.662 152.006, 332.487 152.181 C 332.312 152.356, 336.744 152.512, 342.335 152.527 C 353.692 152.557, 360.390 154.277, 368.152 159.157 C 373.322 162.408, 380.429 169.647, 383.707 175 C 387.832 181.737, 391.185 193.924, 391.753 204.248 L 392.291 214 395.289 214 L 398.287 214 397.615 205.102 C 395.609 178.521, 383.813 160.244, 364.299 153.475 C 356.583 150.799, 344.823 149.703, 337.652 150.991 M 140 177.500 C 140 182.389, 140.333 184.056, 141.250 183.750 C 142.060 183.480, 142.500 181.278, 142.500 177.500 C 142.500 173.722, 142.060 171.520, 141.250 171.250 C 140.333 170.944, 140 172.611, 140 177.500 M 122.692 177.641 C 122.339 177.994, 123.903 180.495, 126.167 183.200 C 128.870 186.428, 130.622 187.778, 131.269 187.131 C 131.915 186.485, 130.967 184.576, 128.506 181.573 C 124.769 177.012, 123.905 176.428, 122.692 177.641 M 312.077 187.903 C 310.377 190.049, 307.527 194.887, 305.743 198.653 C 302.508 205.483, 302.500 205.538, 302.562 221 C 302.674 249.041, 307.080 264.492, 318.477 276.802 C 321.427 279.989, 326.169 283.863, 329.014 285.411 C 333.403 287.800, 335.046 288.161, 339.844 287.795 C 347.052 287.244, 355.706 283.026, 362.662 276.674 C 368.729 271.134, 372.104 271.190, 366.837 276.744 C 362.376 281.448, 352.971 287.517, 347.141 289.453 L 342.409 291.025 342.454 299.962 C 342.485 305.986, 342.079 309.321, 341.208 310.191 C 340.153 311.247, 339.764 311.235, 339.078 310.127 C 338.503 309.196, 337.582 310.768, 336.143 315.135 C 334.272 320.819, 330.025 337.451, 330.007 339.168 C 329.996 340.256, 342.051 343.840, 348 344.517 C 353.695 345.165, 364.116 343.890, 370.711 341.737 C 374.324 340.557, 374.647 340.082, 377.669 331.500 C 382.309 318.322, 386.266 301.258, 385.655 297.064 C 385.369 295.104, 384.418 290.575, 383.541 287 C 382.571 283.042, 381.921 275.892, 381.881 268.717 L 381.815 256.935 377.762 260.596 C 375.533 262.609, 370.932 265.516, 367.538 267.055 C 364.143 268.595, 360.808 270.527, 360.126 271.349 C 358.396 273.433, 351.319 274.510, 349.465 272.971 C 347.241 271.125, 347.708 268.237, 350.531 266.387 C 352.452 265.129, 354.316 264.877, 358.258 265.344 C 364.979 266.140, 370.515 263.578, 377.828 256.287 L 383.156 250.974 380.617 247.956 C 376.274 242.795, 374.711 232.997, 377.125 226.071 C 378.796 221.277, 377.096 218.369, 371.794 216.957 C 360.772 214.020, 347.655 204.991, 339.169 194.500 L 335.933 190.500 337.499 194.967 C 338.360 197.424, 340.215 201.397, 341.620 203.796 C 343.026 206.194, 343.936 208.397, 343.642 208.691 C 342.686 209.647, 334.184 206.223, 329.480 202.986 C 324.098 199.283, 319.452 193.241, 317.834 187.839 C 317.201 185.727, 316.342 184, 315.926 184 C 315.509 184, 313.777 185.756, 312.077 187.903 M 114.241 194.250 C 114.646 195.492, 124.815 198.064, 126.250 197.288 C 128.159 196.255, 126.577 195.075, 121.951 194.083 C 115.413 192.681, 113.741 192.717, 114.241 194.250 M 141.110 194.396 C 136.314 197.054, 136.073 198.638, 136.035 227.850 L 136 255.200 139.400 258.600 L 142.800 262 174.150 262.001 L 205.500 262.003 216.858 271.060 C 223.105 276.042, 228.457 279.877, 228.751 279.582 C 229.045 279.288, 229.194 275.211, 229.081 270.524 L 228.876 262 237.488 262 C 247.672 262, 251.498 260.447, 253.579 255.466 C 255.696 250.397, 255.635 203.129, 253.506 199.011 C 250.271 192.756, 252.601 192.997, 195.527 193.035 C 154.264 193.064, 143.006 193.345, 141.110 194.396 M 144.500 195.919 C 143.400 196.384, 141.600 197.765, 140.500 198.988 C 138.607 201.093, 138.500 202.619, 138.500 227.526 L 138.500 253.840 140.924 256.420 L 143.349 259 174.744 259 L 206.139 259 214.658 265.750 C 219.344 269.462, 223.925 273.044, 224.839 273.708 C 226.348 274.806, 226.500 274.211, 226.500 267.208 L 226.500 259.500 237.342 259 C 252.936 258.281, 252 260.295, 252 227.445 L 252 201.112 249.587 198.306 L 247.175 195.500 196.837 195.287 C 169.152 195.169, 145.600 195.454, 144.500 195.919 M 343.074 212.826 C 341.740 213.227, 340.471 214.086, 340.255 214.735 C 339.978 215.566, 341.582 215.853, 345.681 215.707 C 348.881 215.593, 352.962 215.873, 354.750 216.329 C 358.418 217.265, 359.266 215.748, 356.040 214.022 C 353.394 212.605, 346.060 211.929, 343.074 212.826 M 306.250 215.220 C 305.012 215.817, 304 216.912, 304 217.653 C 304 219.216, 306.589 219.473, 307.500 218 C 307.840 217.450, 310.566 217, 313.559 217 C 318.822 217, 320.669 215.855, 317.418 214.607 C 314.979 213.671, 308.753 214.013, 306.250 215.220 M 388.667 219.825 C 383.747 224.961, 382.528 235.161, 385.937 242.669 C 391.700 255.362, 405.038 247.536, 404.972 231.500 C 404.952 226.609, 401.888 219.546, 399.151 218.081 C 395.542 216.149, 391.553 216.813, 388.667 219.825 M 391.521 223.388 C 385.256 229.653, 388.205 245, 395.674 245 C 398.758 245, 398.643 243.195, 395.482 241.993 C 389.934 239.884, 389.600 229.399, 394.938 224.922 C 396.628 223.505, 397.709 222.042, 397.339 221.672 C 396.048 220.382, 393.891 221.018, 391.521 223.388 M 172.200 225.200 C 169.510 227.890, 171.604 232, 175.665 232 C 178.489 232, 180.045 229.245, 178.914 226.250 C 177.976 223.766, 174.221 223.179, 172.200 225.200 M 192.200 225.200 C 189.340 228.060, 191.972 232.425, 196.195 231.827 C 197.897 231.586, 198.586 230.743, 198.830 228.609 C 199.297 224.519, 195.060 222.340, 192.200 225.200 M 212.040 225.452 C 209.383 228.653, 213.285 233.570, 216.750 231.388 C 220.212 229.207, 218.979 224, 215 224 C 214.035 224, 212.703 224.653, 212.040 225.452 M 345.997 227.006 C 345.096 228.689, 345.192 229.643, 346.452 231.567 C 347.329 232.905, 348.431 234, 348.901 234 C 350.620 234, 352.136 231.048, 351.822 228.310 C 351.408 224.695, 347.680 223.861, 345.997 227.006 M 311.667 226.667 C 310.340 227.993, 310.984 234.056, 312.513 234.643 C 314.572 235.433, 317 233.234, 317 230.578 C 317 227.184, 313.625 224.709, 311.667 226.667 M 324.197 240.821 C 322.989 244.572, 322 247.930, 322 248.282 C 322 249.608, 326.450 253, 328.189 253 C 330.683 253, 330.457 251.941, 327.453 249.538 C 324.937 247.525, 324.924 247.446, 326.453 243.124 C 328.127 238.391, 328.485 234, 327.197 234 C 326.755 234, 325.405 237.069, 324.197 240.821 M 334.500 260.176 C 321.065 261.364, 321.407 261.166, 324.183 266.150 C 325.800 269.055, 327.772 270.877, 330.711 272.185 C 334.496 273.870, 335.267 273.915, 338.329 272.636 C 342.552 270.871, 347.270 264.902, 346.827 261.883 C 346.418 259.095, 346.536 259.111, 334.500 260.176 M 340 262.741 C 338.075 262.883, 334.074 263.264, 331.109 263.589 L 325.718 264.179 328.795 267.256 C 333.628 272.089, 339.799 270.982, 343.174 264.676 C 344.375 262.431, 344.357 262.420, 340 262.741 M 386.478 288.039 C 386.889 289.392, 387.624 290.928, 388.112 291.450 C 392.574 296.225, 382.864 329.944, 359.797 389.787 C 354.536 403.435, 354.296 406.705, 358.762 403.917 C 360.458 402.857, 361.423 403.058, 365.154 405.244 L 369.548 407.819 371.963 404.160 C 376.953 396.599, 390.884 374.183, 395.781 365.835 L 400.864 357.169 393.428 351.345 C 389.339 348.142, 386.139 345.084, 386.317 344.549 C 386.495 344.015, 391.095 341.850, 396.539 339.737 C 401.983 337.624, 406.568 335.765, 406.728 335.605 C 406.888 335.446, 405.503 327.362, 403.651 317.641 L 400.285 299.967 395.374 294.344 C 392.674 291.251, 389.399 288.013, 388.098 287.149 C 385.794 285.619, 385.751 285.642, 386.478 288.039 M 332.750 301.252 C 327.998 305.588, 310.124 329.063, 310.028 331.093 C 310.013 331.420, 312.269 333.600, 315.043 335.939 C 320.909 340.885, 320.915 340.866, 311.446 347.035 C 307.140 349.841, 305 351.885, 305 353.194 C 305 356.786, 309.137 382.490, 309.824 383.165 C 310.196 383.530, 313.200 384.120, 316.500 384.476 L 322.500 385.122 317.335 380.311 C 311.366 374.751, 309.597 371.741, 310.406 368.517 C 311.290 364.996, 313.792 364.688, 318.605 367.508 L 322.948 370.054 323.412 367.777 C 323.667 366.525, 324.376 360.550, 324.988 354.500 C 326.879 335.801, 333.080 311.461, 337.967 303.553 C 339.975 300.305, 340.706 295.998, 339.250 296.002 C 338.837 296.003, 335.912 298.365, 332.750 301.252 M 404 303.705 C 404 304.066, 405.379 311.548, 407.064 320.331 C 409.583 333.466, 409.894 336.518, 408.814 337.521 C 408.091 338.192, 404.125 339.985, 400 341.505 C 395.875 343.025, 392.143 344.588, 391.706 344.979 C 391.269 345.369, 393.379 347.593, 396.396 349.920 C 405.003 356.560, 404.875 355.728, 398.899 366.216 C 394.415 374.084, 379.493 398.274, 373.659 407.131 L 371.925 409.763 389.162 421.349 C 398.642 427.722, 406.563 432.770, 406.765 432.568 C 406.967 432.366, 408.232 421.468, 409.577 408.350 C 412.273 382.041, 412.593 380, 414.019 380 C 415.411 380, 415.297 382.109, 412.500 408.191 C 411.126 421.011, 410.017 432.400, 410.036 433.500 C 410.061 434.916, 412.403 436.903, 418.054 440.303 C 427.573 446.029, 437.398 457.155, 432.750 456.943 C 432.063 456.912, 429.848 454.716, 427.830 452.064 C 425.685 449.246, 421.528 445.662, 417.830 443.441 C 414.348 441.351, 400.128 432.059, 386.230 422.791 C 370.488 412.295, 360.817 406.424, 360.582 407.221 C 357.038 419.239, 350.583 430.864, 344.217 436.695 C 341.219 439.441, 340.886 440.158, 341.988 441.486 C 342.701 442.345, 350.983 449.482, 360.392 457.346 C 398.564 489.249, 409.788 496, 424.659 496 C 429.353 496, 432.626 495.391, 435.552 493.975 C 442.909 490.413, 443.217 489.677, 443.068 476.048 C 442.940 464.434, 443.030 463.879, 445.422 461.487 C 446.790 460.119, 448.942 458.993, 450.205 458.985 C 455.268 458.951, 455.841 457.466, 458.415 437.730 C 464.073 394.352, 462.121 347.918, 453.967 331.936 C 451.005 326.129, 446.771 323.268, 427 313.716 C 406.689 303.903, 404 302.733, 404 303.705 M 200 309.852 C 200 311.421, 201.012 314.125, 202.250 315.862 C 203.488 317.599, 205.810 320.832, 207.412 323.048 C 211.143 328.208, 209.962 330.090, 204.249 328.087 C 196.544 325.387, 188.096 320.888, 180.910 315.658 C 173.549 310.302, 169 308.048, 169 309.758 C 169 310.693, 179.691 319.590, 184 322.241 C 185.375 323.087, 188.464 324.992, 190.865 326.475 C 193.682 328.214, 194.886 329.514, 194.261 330.139 C 193.030 331.370, 183.303 325.749, 174.774 318.878 C 167.215 312.787, 163.340 310.655, 161.274 311.448 C 159.917 311.969, 159.947 312.284, 161.519 314.021 C 162.504 315.109, 163.892 316, 164.603 316 C 165.314 316, 168.580 318.233, 171.860 320.963 C 175.140 323.693, 181.055 328.017, 185.004 330.571 C 189.791 333.668, 191.851 335.549, 191.184 336.216 C 190 337.400, 178.122 330.010, 170.517 323.359 C 166.156 319.544, 160.939 317.559, 161.032 319.750 C 161.116 321.744, 166.143 326, 168.415 326 C 170.096 326, 173.006 327.938, 177.213 331.859 C 180.671 335.082, 184.963 338.469, 186.750 339.385 C 188.537 340.302, 190 341.490, 190 342.026 C 190 344.934, 182.975 341.141, 175.824 334.372 C 170.741 329.561, 167 327.615, 167 329.783 C 167 330.213, 169.427 333.489, 172.393 337.063 C 179.153 345.207, 187.140 350.846, 199.971 356.535 C 213.494 362.531, 213.522 362.553, 216.706 369.686 C 218.243 373.129, 219.993 375.958, 220.595 375.973 C 222.098 376.010, 233.094 368.766, 235.264 366.309 C 236.957 364.392, 236.927 364.084, 234.525 358.653 C 233.149 355.540, 231.298 349.733, 230.412 345.747 C 228.206 335.823, 225.190 330.971, 214.839 320.691 C 209.961 315.846, 205.249 310.784, 204.370 309.441 C 202.176 306.094, 200 306.298, 200 309.852 M 307.749 313.832 C 292.858 320.452, 288.876 323.338, 285.534 329.933 C 283.274 334.393, 264 394.179, 264 396.729 C 264 397.348, 266.714 403.400, 270.032 410.177 C 275.750 421.857, 277.522 427.514, 275.676 428.196 C 275.223 428.363, 273.597 425.275, 272.064 421.333 C 270.530 417.392, 267.717 411.317, 265.813 407.833 C 263.909 404.350, 258.139 392.725, 252.992 382 C 247.844 371.275, 243.574 362.396, 243.503 362.270 C 243.431 362.143, 240.637 364.700, 237.294 367.951 C 231.173 373.903, 223.109 378.693, 215.250 381.045 C 212.912 381.744, 211 382.797, 211 383.384 C 211 383.970, 212.181 387.460, 213.624 391.138 L 216.247 397.825 226.603 398.163 C 236.144 398.473, 237.160 398.701, 239.507 401.051 C 242.011 403.556, 244.544 412.021, 257.705 461.859 C 259.989 470.509, 260.827 472.364, 262.785 473.109 C 271.680 476.490, 284.633 468.219, 293.492 453.500 C 297.674 446.552, 297.688 446.861, 292.424 428.659 C 290.541 422.146, 289 415.372, 289 413.605 C 289 411.246, 288.070 409.491, 285.500 407 C 283.575 405.134, 282 402.819, 282 401.855 C 282 400.891, 280.419 398.896, 278.487 397.422 C 276.554 395.948, 274.719 393.563, 274.409 392.121 C 274.098 390.680, 273.385 388.547, 272.824 387.381 C 271.259 384.134, 272.196 381.767, 275.482 380.672 C 277.122 380.126, 279.067 379.076, 279.804 378.339 C 280.540 377.603, 282.640 377, 284.469 377 C 287.770 377, 287.803 376.954, 288.897 370.668 C 289.504 367.186, 290 362.937, 290 361.227 C 290 358.119, 291.258 356.423, 292.839 357.400 C 293.300 357.685, 293.041 362.268, 292.263 367.584 C 291.486 372.900, 291.221 377.602, 291.675 378.034 C 292.638 378.949, 305.341 382.938, 305.832 382.479 C 306.015 382.308, 305.486 377.743, 304.656 372.334 C 303.826 366.925, 302.848 359.718, 302.483 356.318 L 301.819 350.136 309.025 345.345 L 316.230 340.554 311.607 336.527 C 309.064 334.312, 306.987 331.896, 306.992 331.158 C 306.996 330.420, 310.375 325.130, 314.500 319.403 C 318.625 313.676, 322 308.768, 322 308.495 C 322 307.594, 320.609 308.115, 307.749 313.832 M 432.501 336.255 C 424.597 344.410, 418 354.708, 418 358.890 C 418 362.699, 419.560 361.113, 423.057 353.750 C 425.672 348.244, 428.575 344.406, 435.126 337.793 C 439.870 333.004, 443.508 328.841, 443.209 328.543 C 441.855 327.188, 439.979 328.539, 432.501 336.255 M 196 343.231 C 196 344.369, 197.632 344.848, 202.758 345.215 C 208.918 345.656, 212.477 346.891, 217.202 350.227 C 219.413 351.789, 220.673 350.516, 218.959 348.451 C 216.368 345.328, 209.544 342.703, 202.750 342.216 C 197.201 341.817, 196 341.998, 196 343.231 M 328.989 344.750 C 328.983 345.712, 328.710 348.121, 328.382 350.102 C 327.910 352.958, 328.148 353.843, 329.532 354.374 C 332.794 355.626, 353.650 356.872, 361.456 356.282 C 369.019 355.710, 369.266 355.608, 370.547 352.542 C 371.271 350.808, 372.160 348.209, 372.523 346.766 L 373.181 344.143 367.341 345.719 C 358.682 348.056, 344.040 347.776, 336.282 345.125 C 328.788 342.564, 329.003 342.575, 328.989 344.750 M 327.489 357.845 C 327.220 358.113, 327 360.231, 327 362.550 C 327 367.928, 327.026 367.936, 348 368.686 L 364.500 369.277 365.891 365.388 C 366.657 363.250, 367.492 360.938, 367.748 360.250 C 368.107 359.287, 364.801 358.983, 353.357 358.927 C 345.186 358.887, 336.132 358.517, 333.239 358.105 C 330.345 357.693, 327.758 357.576, 327.489 357.845 M 238 359.941 C 238 361.617, 239.774 362.033, 240.364 360.494 C 240.712 359.587, 240.361 359, 239.469 359 C 238.661 359, 238 359.423, 238 359.941 M 313 370.056 C 313 371.316, 315.992 374.971, 320.730 379.499 C 327.244 385.724, 328.171 386.997, 326.625 387.590 C 323.550 388.770, 306.520 386.159, 296.630 382.991 C 286.867 379.863, 282.549 379.303, 281.486 381.023 C 280.784 382.159, 291.369 387.259, 303.026 391.402 C 307.137 392.863, 311.138 394.285, 311.917 394.562 C 312.852 394.894, 312.998 395.402, 312.345 396.055 C 310.953 397.447, 300.049 393.920, 287.329 387.966 C 277.438 383.335, 272.399 382.366, 275.094 385.613 C 276.826 387.700, 293.548 396.387, 301.743 399.457 C 308.976 402.166, 310.805 403.384, 309.162 404.400 C 308.011 405.111, 295.254 400.155, 285.114 395.057 C 273.551 389.244, 274.479 391.317, 287.318 399.982 C 289.626 401.540, 294.661 404.052, 298.507 405.564 C 306.523 408.716, 308.445 409.955, 307.221 411.179 C 306.735 411.665, 301.839 410.082, 296.048 407.569 C 287.086 403.678, 286.033 403.406, 287.984 405.483 C 290.764 408.443, 302.316 414.589, 308.720 416.516 C 311.348 417.307, 318.449 418.679, 324.500 419.564 C 335.443 421.164, 339.735 422.839, 343.471 426.968 C 344.482 428.085, 345.803 428.999, 346.405 428.998 C 347.869 428.996, 352.175 421.839, 354.946 414.803 L 357.190 409.105 353.620 405.971 C 351.656 404.247, 348.177 399.444, 345.888 395.297 C 343.599 391.150, 340.470 386.327, 338.935 384.579 C 336.549 381.862, 315.374 368, 313.609 368 C 313.274 368, 313 368.925, 313 370.056 M 326 370.720 C 326 371.244, 329.262 373.832, 333.250 376.471 L 340.500 381.268 349.977 381.384 L 359.454 381.500 361.179 378 C 362.128 376.075, 362.926 374.005, 362.952 373.399 C 362.984 372.669, 357.703 372.083, 347.250 371.657 C 338.587 371.304, 330.262 370.734, 328.750 370.391 C 327.237 370.048, 326 370.196, 326 370.720 M 212.494 376.006 C 210.268 378.466, 210.922 379.309, 214.382 378.440 C 217.290 377.710, 217.238 377.784, 216.393 375.582 C 215.590 373.488, 214.684 373.587, 212.494 376.006 M 343.239 384.967 C 343.383 385.260, 344.625 387.409, 346 389.742 C 348.083 393.276, 349.017 393.986, 351.598 393.992 C 354.250 393.999, 354.957 393.422, 356.505 389.990 C 357.499 387.784, 358.130 385.810, 357.906 385.602 C 357.255 384.998, 342.951 384.378, 343.239 384.967 M 470 392.372 C 470 392.669, 471.125 394.569, 472.500 396.595 C 475.672 401.269, 475.669 403.370, 472.454 431.201 C 470.132 451.311, 469.968 455.365, 471.542 453.792 C 472.394 452.939, 476.984 412.186, 476.992 405.398 C 476.998 400.712, 476.478 398.525, 474.750 395.975 C 472.745 393.016, 470 390.934, 470 392.372 M 350.638 398.500 C 350.955 399.325, 351.568 400, 352 400 C 352.432 400, 353.045 399.325, 353.362 398.500 C 353.751 397.485, 353.311 397, 352 397 C 350.689 397, 350.249 397.485, 350.638 398.500 M 109.200 402.200 C 107.004 404.396, 105.607 398.729, 127.377 475.953 C 132.385 493.718, 135.417 502.832, 136.608 503.703 C 138.016 504.733, 151.088 505, 200 505 C 267.344 505, 265.741 505.138, 264.792 499.413 C 264.527 497.811, 258.768 476.025, 251.994 451 C 243.552 419.815, 239.044 404.792, 237.664 403.250 L 235.651 401 173.026 401 C 125.650 401, 110.108 401.292, 109.200 402.200 M 292.569 417.966 C 293.334 421.247, 295.269 428.334, 296.867 433.716 C 301.404 448.987, 302.385 457.196, 301.691 474.090 L 301.079 489 314.404 489 L 327.728 489 328.301 474.250 C 328.616 466.137, 329.398 457.624, 330.038 455.332 C 331.017 451.824, 330.871 449.687, 329.115 441.832 C 327.967 436.699, 326.728 430.475, 326.362 428 C 325.614 422.945, 324.747 422.037, 320.642 422.015 C 318.089 422.002, 317.850 422.268, 318.411 424.501 C 318.756 425.877, 321.018 431.614, 323.436 437.251 C 326.072 443.394, 327.473 447.874, 326.934 448.433 C 325.596 449.820, 325.297 449.285, 319.639 435.342 C 316.772 428.279, 314.111 421.989, 313.725 421.363 C 313.338 420.738, 311.330 419.911, 309.261 419.526 C 307.192 419.141, 302.377 417.290, 298.560 415.413 C 294.743 413.536, 291.520 412, 291.399 412 C 291.277 412, 291.804 414.684, 292.569 417.966 M 328.393 424.582 C 328.727 425.452, 329 426.802, 329 427.582 C 329 428.617, 330.350 429, 334 429 C 340.271 429, 340.737 426.912, 334.980 424.609 C 329.785 422.530, 327.602 422.521, 328.393 424.582 M 340.098 433.149 C 338.538 437.625, 338.653 437.706, 342.002 434.498 C 344.194 432.398, 344.667 431.406, 343.752 430.826 C 341.722 429.536, 341.254 429.834, 340.098 433.149 M 330.440 434.441 C 330.777 436.123, 331.324 439.188, 331.654 441.250 C 331.985 443.313, 332.613 445, 333.050 445 C 333.883 445, 335.422 440.682, 336.483 435.366 C 337.082 432.363, 336.955 432.214, 333.467 431.806 C 329.876 431.387, 329.835 431.423, 330.440 434.441 M 334.572 450.750 C 332.114 457.562, 331.712 460.346, 331.254 473.750 L 330.732 489 362.866 489 C 380.540 489, 395 488.817, 395 488.594 C 395 488.370, 392.637 486.500, 389.750 484.437 C 382.648 479.362, 363.387 463.880, 353.102 454.979 L 344.704 447.711 340.602 452.439 C 335.371 458.468, 333.897 457.270, 338.624 450.831 C 341.553 446.841, 341.982 445.683, 340.980 444.476 C 338.684 441.710, 337.371 442.995, 334.572 450.750 M 450.823 461.709 C 449.351 461.934, 447.655 462.711, 447.054 463.435 C 446.317 464.323, 446.049 472.176, 446.231 487.613 L 446.500 510.474 449.500 511.987 C 453.301 513.904, 478.029 514.107, 482.250 512.256 L 485 511.050 485 487.072 L 485 463.094 481.250 462.053 C 477.700 461.067, 456.580 460.828, 450.823 461.709 M 336.245 464.155 C 333.410 466.990, 335.905 473, 339.916 473 C 340.892 473, 342.517 472.086, 343.527 470.970 C 346.246 467.966, 344.532 463.606, 340.477 463.205 C 338.834 463.043, 336.930 463.470, 336.245 464.155 M 449.324 465.472 C 449.898 467.194, 454.244 467.801, 466 467.801 C 477.756 467.801, 482.102 467.194, 482.676 465.472 C 482.877 464.868, 476.567 464.500, 466 464.500 C 455.433 464.500, 449.123 464.868, 449.324 465.472 M 338.190 467.750 C 338.376 468.712, 339.190 469.500, 340 469.500 C 340.810 469.500, 341.624 468.712, 341.810 467.750 C 342.046 466.522, 341.506 466, 340 466 C 338.494 466, 337.954 466.522, 338.190 467.750 M 488 473.500 C 488 474.325, 488.697 475, 489.550 475 C 490.402 475, 492.364 475.654, 493.909 476.453 C 500.098 479.653, 500.779 491.127, 495.083 496.218 C 493.370 497.748, 491.076 499, 489.984 499 C 488.816 499, 488 499.671, 488 500.631 C 488 501.947, 488.700 502.148, 491.624 501.674 C 498.166 500.612, 502 494.999, 502 486.482 C 502 481.160, 500.131 477.035, 496.385 474.088 C 493.248 471.621, 488 471.253, 488 473.500 M 488 487 C 488 495.220, 488.167 496, 489.927 496 C 492.977 496, 496 491.315, 496 486.588 C 496 481.510, 493.729 478, 490.443 478 C 488.033 478, 488 478.122, 488 487 M 64.245 490.235 C 64.782 491.845, 124 492.108, 124.001 490.500 C 124.001 489.861, 113.129 489.404, 93.912 489.235 C 70.006 489.025, 63.910 489.230, 64.245 490.235 M 509.496 490.007 C 509.153 490.561, 509.468 491.242, 510.195 491.521 C 510.922 491.800, 525.876 491.910, 543.426 491.764 C 567.873 491.562, 575.431 491.208, 575.750 490.250 C 576.285 488.644, 510.487 488.403, 509.496 490.007 M 267.630 501.250 C 267.299 502.488, 267.021 503.837, 267.014 504.250 C 267.006 504.663, 280.050 505, 296 505 C 323.840 505, 325.081 504.919, 327.036 502.964 C 328.157 501.843, 328.805 500.493, 328.477 499.964 C 328.117 499.380, 316.109 499, 298.058 499 L 268.233 499 267.630 501.250" stroke="none" fill="black" fill-rule="evenodd"/>
	<path fill-opacity="0.543" d="M 384.994 123.876 C 375.312 127.046, 368 135.481, 368 143.480 C 368 145.925, 367.836 145.994, 363.750 145.262 C 356.120 143.894, 343.877 144.685, 336.972 146.991 C 329.762 149.398, 319.024 155.062, 316.966 157.542 C 316.229 158.430, 313.517 160.225, 310.939 161.531 C 298.003 168.086, 289 183.906, 289 200.081 C 289 206.215, 292.103 215.699, 296.500 223 C 299.144 227.391, 299.947 230.013, 300.481 236 C 302.348 256.925, 307.028 268.932, 317.467 279.579 C 323.717 285.953, 332.196 290.970, 336.750 290.990 C 339.909 291.004, 339.550 292.483, 335.750 295.114 C 333.962 296.351, 330.598 299.082, 328.272 301.182 C 325.947 303.282, 323.562 305, 322.972 305 C 320.096 305, 292.518 317.720, 289.158 320.597 C 284.021 324.994, 281.723 330.500, 271.464 363 C 266.689 378.125, 262.427 391.151, 261.991 391.948 C 261.427 392.979, 260.345 391.540, 258.229 386.948 C 247.651 363.984, 243.819 356.993, 241.491 356.408 C 240.183 356.080, 238.629 356.111, 238.036 356.478 C 236.676 357.318, 234.447 352.069, 232.417 343.245 C 231.564 339.535, 229.766 334.612, 228.422 332.304 C 225.669 327.576, 203.001 304, 201.208 304 C 200.569 304, 199.321 305.107, 198.435 306.459 C 196.304 309.711, 197.261 313.876, 201.382 319.289 C 206.555 326.083, 206.544 326.185, 200.920 323.968 C 193.677 321.113, 192.687 320.549, 182.320 313.363 C 173.287 307.102, 168.118 305.381, 166.450 308.081 C 166.082 308.676, 164.779 308.910, 163.553 308.603 C 159.980 307.706, 157.546 310.119, 158.517 313.594 C 159.416 316.813, 159.416 316.814, 158.500 319.165 C 158.067 320.275, 159.081 322.191, 161.542 324.915 C 163.572 327.162, 164.940 329, 164.581 329 C 163.518 329, 166.007 333.121, 170.678 339.096 C 176.654 346.740, 184.884 352.477, 199.314 359.058 C 214.294 365.890, 215.890 367.884, 211.061 373.742 C 207.261 378.352, 207.139 381.921, 210.500 390.192 C 211.875 393.576, 213 396.942, 213 397.672 C 213 398.759, 203.479 399, 160.557 399 L 108.113 399 106.557 401.223 C 105.701 402.445, 105 404.114, 105 404.931 C 105 405.748, 109.020 420.611, 113.932 437.959 C 118.845 455.306, 124.957 476.925, 127.513 486 C 130.431 496.357, 132.941 503.338, 134.255 504.750 L 136.349 507 231.674 507 C 325.667 507, 327.028 506.972, 329 505 C 330.111 503.889, 331 501.667, 331 500 L 331 497 299.039 497 L 267.077 497 266.056 493.250 C 265.494 491.188, 264.187 486.462, 263.152 482.750 L 261.269 476 266.884 475.978 C 270.245 475.965, 274.200 475.185, 276.732 474.035 C 282.375 471.473, 290.381 463.848, 294.292 457.308 C 296.038 454.389, 297.774 452, 298.148 452 C 299.559 452, 300.116 466.891, 299.078 476.856 C 298.485 482.552, 298 487.614, 298 488.106 C 298 488.598, 291.250 489, 283 489 C 273.667 489, 268 489.378, 268 490 C 268 490.657, 290.632 491, 333.896 491 L 399.792 491 407.646 494.750 C 414.955 498.240, 416.137 498.500, 424.668 498.500 C 433.400 498.500, 434.057 498.345, 438.448 495.250 C 440.984 493.462, 443.270 492, 443.529 492 C 443.788 492, 444 496.525, 444 502.056 L 444 512.112 448.250 513.988 C 456.928 517.817, 477.286 517.489, 485.208 513.393 C 487.440 512.238, 488 511.262, 488 508.520 C 488 505.415, 488.320 505.031, 491.382 504.456 C 500.203 502.801, 504.367 497.204, 504.367 487 C 504.367 476.838, 500.145 470.876, 491.971 469.495 C 488.229 468.863, 488 468.623, 488 465.332 C 488 462.186, 487.603 461.683, 484 460.268 C 481.635 459.339, 480.008 458.043, 480.019 457.098 C 480.030 456.219, 481.149 445.600, 482.506 433.500 C 483.862 421.400, 484.979 408.832, 484.986 405.571 C 485 399.854, 483.326 393, 481.916 393 C 481.541 393, 481.903 394.913, 482.721 397.250 C 483.788 400.297, 484.052 403.764, 483.654 409.500 C 483.098 417.513, 479.487 449.860, 478.520 455.500 L 478.005 458.500 468.252 458.152 C 462.889 457.961, 458.406 457.717, 458.292 457.611 C 458.178 457.505, 458.730 453.429, 459.519 448.555 C 462.904 427.645, 464.231 406.106, 463.652 381.500 C 462.746 342.985, 459.234 329.257, 448.367 321.747 C 446.176 320.233, 435.127 314.585, 423.813 309.197 C 403.435 299.491, 403.188 299.336, 397.457 292.580 C 394.275 288.830, 390.233 285.160, 388.474 284.425 C 385.900 283.349, 385.154 282.348, 384.649 279.294 C 383.750 273.854, 383.856 264.207, 384.821 263.611 C 385.272 263.332, 387.072 263.974, 388.821 265.037 C 391.149 266.453, 392.323 268.179, 393.207 271.485 C 394.537 276.457, 396 277.461, 396 273.401 C 396 269.359, 393.026 264.065, 389.826 262.410 L 386.921 260.908 391.211 257.346 C 393.570 255.387, 396.305 252.933, 397.289 251.892 C 398.273 250.852, 399.520 250, 400.061 250 C 401.889 250, 406.912 240.771, 407.607 236.137 C 407.986 233.605, 408.940 229.994, 409.726 228.113 C 411.732 223.313, 414.003 210.797, 413.983 204.662 C 413.959 197.757, 411.615 187.063, 408.730 180.707 L 406.380 175.527 411.397 172.514 C 417.895 168.610, 422 161.267, 422 153.546 C 422 143.300, 413.515 131.332, 402.457 125.979 C 397.646 123.650, 388.900 122.597, 384.994 123.876 M 335.559 151.124 C 333.392 151.632, 331.460 152.207, 331.266 152.400 C 331.072 152.594, 335.546 152.749, 341.207 152.744 C 371.233 152.720, 389.059 171.235, 391.615 205.102 L 392.287 214 395.289 214 L 398.291 214 397.732 204.250 C 396.122 176.173, 380.823 156.119, 357.201 151.121 C 351.005 149.810, 341.160 149.812, 335.559 151.124 M 140 176.941 C 140 180.209, 140.450 183.160, 141 183.500 C 141.628 183.888, 142 181.677, 142 177.559 C 142 173.853, 141.565 171, 141 171 C 140.446 171, 140 173.647, 140 176.941 M 123.027 178.250 C 123.060 179.783, 129.647 187, 131.013 187 C 132.808 187, 132.026 185.549, 127.914 181.250 C 123.532 176.668, 122.986 176.332, 123.027 178.250 M 311.273 188.765 C 308.948 191.919, 305.819 197.425, 304.320 201 C 301.817 206.967, 301.607 208.484, 301.761 219.500 C 302.006 237.152, 304.968 254.295, 309.376 263.576 C 313.393 272.035, 321.870 281.666, 328.954 285.818 C 337.863 291.041, 348.698 288.317, 362.107 277.483 C 369.717 271.335, 372.356 271.573, 365.602 277.800 C 359.902 283.053, 353.768 286.879, 347.528 289.073 L 342.500 290.840 342.248 298.670 C 341.950 307.929, 341.357 311, 339.864 311 C 339.225 311, 339.003 310.061, 339.334 308.750 C 339.859 306.663, 339.803 306.631, 338.548 308.307 C 337.212 310.093, 331.688 329.090, 330.455 336.144 L 329.817 339.788 335.657 341.973 C 345.677 345.722, 357.778 345.723, 371.176 341.975 C 374.780 340.967, 374.922 340.735, 378.382 330.223 C 382.530 317.625, 385.766 304.921, 386.083 300 C 386.207 298.075, 385.470 293.800, 384.446 290.500 C 383.009 285.872, 382.574 281.243, 382.542 270.253 C 382.519 262.417, 382.271 256.004, 381.991 256.003 C 381.710 256.001, 380.940 256.867, 380.278 257.926 C 378.656 260.524, 371.271 265.511, 365.889 267.645 C 363.475 268.601, 361.038 269.997, 360.473 270.747 C 358.044 273.971, 348 274.094, 348 270.899 C 348 266.648, 354.772 263.664, 359.515 265.825 C 361.468 266.715, 362.909 266.386, 367.819 263.933 C 375.383 260.153, 386.112 249, 382.184 249 C 380.656 249, 376.993 241.225, 376.365 236.650 C 376.022 234.141, 376.256 230.039, 376.887 227.535 C 378.720 220.253, 377.738 218.354, 371.152 216.454 C 361.242 213.594, 354.002 209.034, 344.689 199.788 C 335.463 190.628, 334.858 190.868, 340.373 201.500 C 342.085 204.800, 343.645 207.857, 343.841 208.294 C 344.958 210.791, 332.647 205.423, 326.914 200.912 C 323.342 198.103, 317 187.674, 317 184.610 C 317 181.849, 315.646 182.831, 311.273 188.765 M 114.584 193.865 C 114.269 194.374, 114.678 195.046, 115.494 195.359 C 118.006 196.323, 127 197.296, 127 196.604 C 127 194.957, 115.480 192.415, 114.584 193.865 M 139.400 196.400 L 136 199.800 136 227.384 L 136 254.968 138.916 258.234 L 141.833 261.500 174.186 262 L 206.539 262.500 216.872 270.750 C 222.555 275.288, 227.665 279, 228.228 279 C 228.880 279, 229.089 275.917, 228.805 270.500 L 228.359 262 237.275 262 C 243.691 262, 246.959 261.547, 248.928 260.384 C 254.328 257.194, 254.476 256.428, 254.813 229.840 C 255.169 201.697, 254.622 197.960, 249.699 194.958 C 246.636 193.090, 244.299 193.007, 194.650 193.004 L 142.800 193 139.400 196.400 M 143.110 196.396 C 138.358 199.029, 138.073 200.786, 138.035 227.734 L 138 252.968 140.917 256.234 L 143.834 259.500 175.604 259.791 L 207.374 260.082 216.647 267.541 C 221.748 271.644, 226.158 275, 226.448 275 C 226.737 275, 226.693 271.668, 226.349 267.595 L 225.723 260.190 236.450 259.845 C 246.772 259.513, 247.268 259.394, 249.588 256.694 L 252 253.888 252 227.367 L 252 200.846 249.077 197.923 L 246.154 195 195.827 195.035 C 155.975 195.063, 145.003 195.347, 143.110 196.396 M 341.250 213.611 C 338.126 215.001, 340.435 215.966, 345.469 215.375 C 349.013 214.958, 352.017 215.179, 354.001 216.001 C 357.328 217.379, 359.090 216.690, 357.165 214.765 C 355.926 213.526, 343.471 212.622, 341.250 213.611 M 307.352 214.993 C 305.124 215.892, 303.469 217.803, 304.246 218.580 C 304.492 218.825, 306.309 218.351, 308.284 217.526 C 310.415 216.635, 313.121 216.274, 314.938 216.638 C 316.750 217, 318 216.834, 318 216.232 C 318 214.058, 311.534 213.306, 307.352 214.993 M 391.307 217.475 C 386.679 219.476, 383.875 225.534, 383.875 233.532 C 383.875 242.817, 387.703 249, 393.452 249 C 400.018 249, 404.938 241.836, 404.978 232.218 C 405.025 220.923, 398.817 214.228, 391.307 217.475 M 391.997 223.850 C 388.348 227.498, 387.239 233.078, 389.101 238.421 C 390.714 243.050, 395.130 246.270, 397.127 244.273 C 398.058 243.342, 397.745 242.854, 395.724 242.085 C 392.496 240.858, 391 238.180, 391 233.631 C 391 228.763, 392.658 224.902, 395.012 224.287 C 396.105 224.001, 397 223.144, 397 222.383 C 397 220.198, 395.088 220.758, 391.997 223.850 M 172 226 C 171.240 227.421, 171.240 228.579, 172 230 C 173.770 233.307, 179 232.255, 179 228.593 C 179 224.149, 173.985 222.291, 172 226 M 192.032 225.939 C 189.539 230.598, 195.589 234.223, 198.393 229.750 C 199.189 228.480, 199.189 227.520, 198.393 226.250 C 196.773 223.666, 193.339 223.498, 192.032 225.939 M 212.040 225.452 C 209.383 228.653, 213.285 233.570, 216.750 231.388 C 220.212 229.207, 218.979 224, 215 224 C 214.035 224, 212.703 224.653, 212.040 225.452 M 346.390 226.427 C 345.279 229.322, 346.452 232.493, 348.754 232.820 C 351.395 233.195, 352.498 231.122, 351.589 227.498 C 350.894 224.731, 347.323 223.996, 346.390 226.427 M 311.667 226.667 C 310.435 227.898, 310.985 232.743, 312.500 234 C 315.668 236.629, 318.792 230.192, 315.800 227.200 C 314.472 225.872, 312.691 225.642, 311.667 226.667 M 324.191 241.750 L 321.974 248.500 324.543 250.750 C 327.104 252.993, 330 253.746, 330 252.169 C 330 251.712, 328.875 250.736, 327.500 250 C 324.606 248.451, 324.529 247.890, 326.471 242.500 C 328.095 237.992, 328.388 235, 327.204 235 C 326.766 235, 325.410 238.037, 324.191 241.750 M 329.750 260.742 C 323.892 261.045, 323 261.344, 323 263.004 C 323 264.055, 324.730 266.735, 326.845 268.958 C 330.094 272.373, 331.314 273, 334.710 273 C 340.573 273, 347 267.012, 347 261.550 C 347 259.925, 346.215 259.888, 329.750 260.742 M 333.750 262.743 C 329.488 262.931, 326.010 263.403, 326.022 263.792 C 326.063 265.086, 329.469 268.750, 331.684 269.883 C 335.061 271.610, 336.644 271.252, 340.465 267.896 C 343.960 264.828, 345.170 261.812, 342.750 262.201 C 342.063 262.312, 338.012 262.556, 333.750 262.743 M 386 287.878 C 386 288.910, 386.727 290.359, 387.616 291.096 C 392.313 294.995, 384.268 324.502, 363.864 378.209 C 359.415 389.919, 355.558 400.460, 355.293 401.633 C 354.676 404.366, 356.368 405.411, 358.876 403.846 C 360.530 402.812, 361.461 403.039, 364.895 405.312 C 367.129 406.790, 369.153 408, 369.392 408 C 370.256 408, 394.882 368.562, 400.065 358.879 C 400.767 357.567, 399.394 355.940, 393.403 350.985 C 389.253 347.552, 386.227 344.428, 386.678 344.042 C 387.130 343.656, 391.550 341.838, 396.500 340 C 401.450 338.162, 405.873 336.340, 406.328 335.951 C 406.784 335.562, 405.715 327.426, 403.953 317.872 C 400.527 299.295, 400.262 298.680, 392.061 290.250 C 387.540 285.603, 386 285, 386 287.878 M 332.679 301.010 C 327.943 305.339, 311.887 326.524, 310.394 330.416 C 310.093 331.199, 311.789 333.332, 314.438 335.503 C 316.947 337.559, 319 339.827, 319 340.544 C 319 341.260, 315.850 343.941, 312 346.500 C 305.932 350.534, 305 351.552, 305 354.144 C 305 357.181, 308.846 383.180, 309.374 383.707 C 309.532 383.866, 312.551 384.277, 316.081 384.621 L 322.500 385.246 316.855 379.373 C 311.019 373.302, 309.501 370.463, 310.584 367.641 C 311.444 365.400, 315.920 365.591, 319 368 C 322.690 370.887, 324 370.507, 324 366.551 C 324 360.122, 327.046 339.550, 329.561 329 C 332.213 317.870, 334.736 310.397, 338.003 303.994 C 340.107 299.870, 340.628 296, 339.081 296 C 338.575 296, 335.694 298.255, 332.679 301.010 M 404 304.335 C 404 305.070, 405.334 312.563, 406.965 320.987 C 408.596 329.411, 409.718 336.647, 409.459 337.067 C 409.051 337.727, 404.493 339.600, 392.623 343.984 L 389.746 345.047 396.373 350.273 C 400.018 353.147, 403 356.204, 403 357.065 C 403 358.960, 389.951 381.436, 379.551 397.454 C 375.398 403.850, 372.032 409.403, 372.070 409.792 C 372.220 411.307, 406.285 433.157, 406.913 432.140 C 407.271 431.561, 408.381 422.855, 409.380 412.794 C 412.253 383.860, 412.945 379.612, 414.531 381.197 C 414.823 381.489, 413.788 393.736, 412.230 408.413 L 409.399 435.098 415.450 438.727 C 422.957 443.231, 426.547 446.155, 430.175 450.720 C 435.093 456.909, 433.304 457.877, 428.022 451.885 C 425.165 448.645, 419.990 444.445, 415.786 441.954 C 411.779 439.580, 398.314 430.750, 385.865 422.331 C 373.415 413.913, 362.599 406.783, 361.829 406.488 C 360.842 406.109, 360.068 407.296, 359.210 410.504 C 357.028 418.664, 351.644 428.229, 345.744 434.432 C 340.251 440.206, 340.074 440.551, 341.875 441.991 C 342.913 442.821, 351.578 450.088, 361.131 458.139 C 370.684 466.191, 382.622 475.866, 387.659 479.639 C 412.369 498.147, 429.208 501.465, 441.250 490.199 C 443.970 487.654, 444 487.489, 444 474.935 C 444 460.688, 444.225 460.182, 450.958 459.279 C 455.773 458.633, 456.083 457.825, 458.415 439.813 C 463.490 400.628, 462.740 357.761, 456.630 337.705 C 454.788 331.659, 451.189 326.914, 445.454 322.968 C 441.865 320.499, 405.879 303, 404.389 303 C 404.175 303, 404 303.601, 404 304.335 M 200.258 310.883 C 200.624 313.616, 202.163 316.674, 204.903 320.115 C 209.860 326.341, 210.375 329.559, 206.250 328.533 C 200.782 327.172, 187.350 320.169, 180.500 315.108 C 173.699 310.083, 169.541 308.126, 168.301 309.366 C 167.967 309.699, 168.965 310.991, 170.517 312.236 C 178.219 318.416, 183.985 322.521, 188.750 325.219 C 193.560 327.942, 195.413 330, 193.054 330 C 191.271 330, 180.051 322.934, 173.774 317.859 C 166.516 311.990, 163.738 310.503, 161.581 311.331 C 159.235 312.231, 160.787 314.884, 164.586 316.472 C 166.425 317.240, 170.704 320.177, 174.094 322.999 C 177.485 325.820, 182.676 329.493, 185.629 331.160 C 190.690 334.016, 192.424 336, 189.861 336 C 188.094 336, 179.042 330.214, 173.500 325.543 C 165.946 319.175, 163.084 317.516, 161.826 318.774 C 160.330 320.270, 164.527 326, 167.118 326 C 170.156 326, 174.119 328.463, 178.236 332.910 C 180.292 335.129, 183.833 337.894, 186.105 339.054 C 188.999 340.530, 189.922 341.478, 189.185 342.215 C 187.724 343.676, 180.687 339.379, 175.042 333.580 C 170.967 329.394, 167 327.602, 167 329.948 C 167 331.807, 177.275 343.202, 182.213 346.819 C 184.977 348.844, 193.147 353.425, 200.369 357 C 213.410 363.455, 213.519 363.538, 216.216 369 C 217.710 372.025, 219.113 374.950, 219.334 375.500 C 219.929 376.980, 230.185 371.437, 233.852 367.653 L 237.017 364.387 234.570 358.365 C 233.224 355.053, 231.425 349.331, 230.571 345.650 C 229.717 341.969, 228.067 337.092, 226.905 334.813 C 224.628 330.350, 203.586 307.729, 201.171 307.149 C 200.006 306.869, 199.821 307.626, 200.258 310.883 M 308.080 313.562 C 292.200 320.583, 288.261 323.589, 284.595 331.482 C 282.370 336.273, 263.685 394.373, 263.673 396.541 C 263.669 397.114, 265.589 401.389, 267.938 406.041 C 273.863 417.774, 277.311 427.089, 276.156 428.244 C 275.569 428.831, 274.771 427.836, 274.031 425.593 C 273.061 422.655, 244.438 363.202, 243.510 362.199 C 243.357 362.034, 240.817 364.312, 237.866 367.262 C 231.518 373.607, 225.302 377.430, 216.527 380.385 L 210.116 382.545 213.308 390.522 L 216.500 398.500 227.396 399 C 240.547 399.603, 240.734 399.767, 244.567 414 C 257.640 462.553, 260.295 471.626, 261.756 472.750 C 262.651 473.437, 265.111 474, 267.223 474 C 275.754 474, 284.215 467.947, 292.042 456.245 C 297.967 447.387, 298.041 446.185, 293.537 431.928 C 292.182 427.639, 290.526 421.063, 289.858 417.315 C 288.914 412.027, 287.898 409.659, 285.321 406.747 C 283.494 404.683, 282 402.373, 282 401.615 C 282 400.856, 280.196 398.431, 277.990 396.225 C 275.610 393.845, 274.206 391.627, 274.536 390.768 C 274.841 389.972, 274.396 388.743, 273.546 388.038 C 270.671 385.652, 272.323 381, 276.045 381 C 276.950 381, 278.505 380.100, 279.500 379 C 280.609 377.775, 282.580 377, 284.588 377 C 288.378 377, 288.407 376.937, 290.062 365.250 C 290.704 360.712, 291.691 357, 292.254 357 C 292.906 357, 293.042 358.910, 292.627 362.250 C 292.269 365.137, 291.701 370.005, 291.365 373.068 L 290.753 378.635 298.127 380.821 C 302.182 382.023, 305.758 383.005, 306.074 383.003 C 306.389 383.001, 305.884 378.163, 304.951 372.250 C 304.018 366.337, 302.971 358.935, 302.625 355.800 L 301.994 350.101 309.200 345.439 L 316.406 340.777 311.703 336.334 C 309.116 333.890, 307 331.532, 307 331.094 C 307 330.656, 310.626 325.233, 315.059 319.041 C 319.491 312.850, 322.978 307.649, 322.809 307.485 C 322.639 307.321, 316.011 310.055, 308.080 313.562 M 432.507 336.250 C 425.737 343.202, 418 355.577, 418 359.455 C 418 362.184, 419.716 360.296, 422.295 354.731 C 425.744 347.288, 433.125 337.709, 438.404 333.825 C 443.257 330.254, 444.005 329, 441.284 329 C 440.340 329, 436.391 332.262, 432.507 336.250 M 196.195 343.098 C 196.510 344.049, 198.939 344.680, 203.740 345.058 C 209.119 345.481, 211.791 346.258, 214.862 348.290 C 218.981 351.016, 221.390 350.568, 218.190 347.672 C 215.253 345.014, 209.626 343.120, 202.497 342.389 C 196.928 341.819, 195.814 341.944, 196.195 343.098 M 328.424 347.765 C 328.054 350.727, 328.150 353.550, 328.638 354.038 C 330.703 356.103, 355.601 357.702, 365.202 356.386 C 369.617 355.781, 369.715 355.684, 371.801 349.886 C 372.966 346.649, 373.600 344.005, 373.209 344.012 C 372.819 344.018, 370.025 344.688, 367 345.500 C 358.412 347.805, 343.871 347.416, 335.798 344.664 L 329.096 342.380 328.424 347.765 M 326.735 361.660 C 326.403 364.601, 326.609 366.758, 327.259 367.160 C 329.059 368.273, 344.856 369.283, 357.614 369.101 L 364.728 369 366.364 364.717 C 367.264 362.361, 368 360.171, 368 359.851 C 368 359.531, 360.012 359.002, 350.250 358.676 C 340.488 358.350, 331.326 357.799, 329.890 357.452 C 327.398 356.849, 327.256 357.038, 326.735 361.660 M 238.192 360.075 C 238.389 360.666, 238.978 361.150, 239.500 361.150 C 240.022 361.150, 240.611 360.666, 240.808 360.075 C 241.005 359.484, 240.417 359, 239.500 359 C 238.583 359, 237.995 359.484, 238.192 360.075 M 313 370.208 C 313 371.652, 315.422 374.677, 320.008 378.958 C 323.863 382.556, 327.013 386.115, 327.008 386.866 C 326.993 389.438, 307.526 386.413, 292.630 381.524 C 285.387 379.148, 281 378.929, 281 380.945 C 281 381.391, 281.565 382.224, 282.255 382.797 C 284.017 384.259, 304.820 392.641, 308.750 393.472 C 310.538 393.850, 312 394.774, 312 395.526 C 312 397.787, 298.937 393.443, 284.357 386.333 C 277.428 382.955, 273.333 382.498, 274.235 385.206 C 274.824 386.972, 291.258 395.711, 300.386 399.112 C 309.652 402.564, 310.204 402.861, 309.491 404.015 C 308.751 405.211, 297.377 400.925, 286.654 395.409 C 278.201 391.062, 275.938 390.472, 277.520 393.032 C 278.853 395.189, 293.037 403.870, 298.674 405.979 C 306.103 408.759, 308.165 409.924, 307.515 410.975 C 306.955 411.882, 298.187 408.624, 289.502 404.281 L 284.500 401.780 287.839 405.279 C 294.631 412.398, 306.289 417.096, 323.348 419.590 C 335.343 421.343, 338.060 422.358, 343.458 427.098 L 346.944 430.158 349.975 425.378 C 352.739 421.019, 357 411.135, 357 409.081 C 357 408.617, 355.538 407.118, 353.750 405.750 C 351.962 404.383, 348.384 399.453, 345.797 394.797 C 343.211 390.140, 339.632 384.900, 337.844 383.152 C 334.904 380.277, 315.325 368, 313.681 368 C 313.307 368, 313 368.993, 313 370.208 M 326 370.771 C 326 371.344, 329.465 374.120, 333.699 376.940 L 341.398 382.068 350.802 381.784 L 360.205 381.500 362.006 376.750 C 362.996 374.137, 363.513 372.003, 363.153 372.008 C 357.260 372.076, 334.299 370.960, 330.750 370.433 C 327.670 369.976, 326 370.095, 326 370.771 M 212.750 375.470 C 211.787 376.793, 211 378.129, 211 378.438 C 211 379.262, 214.303 379.094, 215.712 378.199 C 216.900 377.444, 216.399 372.969, 215.133 373.031 C 214.785 373.049, 213.713 374.146, 212.750 375.470 M 468 382.892 C 468 383.382, 469.136 384.068, 470.525 384.417 C 471.914 384.766, 474.851 386.677, 477.052 388.666 C 481.951 393.092, 483.207 392.619, 478.739 388.030 C 474.780 383.965, 468 380.720, 468 382.892 M 343 384.572 C 343 384.886, 344.168 387.136, 345.595 389.572 C 347.867 393.448, 348.619 394, 351.631 394 C 354.765 394, 355.246 393.592, 357.036 389.417 C 358.116 386.896, 359 384.646, 359 384.417 C 359 384.188, 355.400 384, 351 384 C 346.600 384, 343 384.257, 343 384.572 M 471.766 395.251 C 472.928 396.488, 474.328 398.626, 474.877 400.001 C 475.782 402.271, 475.879 402.306, 475.937 400.385 C 476.007 398.035, 472.473 393, 470.753 393 C 470.147 393, 470.603 394.013, 471.766 395.251 M 351 399 C 351.589 400.100, 352.227 401, 352.419 401 C 352.610 401, 353.002 400.100, 353.290 399 C 353.680 397.507, 353.320 397, 351.871 397 C 350.240 397, 350.100 397.319, 351 399 M 109.125 401.902 C 108.369 402.381, 107.759 403.836, 107.769 405.136 C 107.780 406.436, 113.726 428.650, 120.983 454.500 C 130.754 489.303, 134.703 501.954, 136.200 503.250 C 138.079 504.876, 142.620 505, 200.411 505 C 265.837 505, 264.997 505.058, 265.002 500.550 C 265.004 498.776, 246.403 428.766, 240.881 409.765 C 239.676 405.615, 238.196 402.640, 237.028 402.015 C 234.659 400.747, 111.120 400.638, 109.125 401.902 M 475.998 403.083 C 475.997 403.313, 475.323 409.800, 474.501 417.500 C 473.678 425.200, 472.801 434.650, 472.551 438.500 C 472.119 445.149, 472.137 445.224, 472.917 440 C 474.836 427.139, 477.181 403.848, 476.615 403.281 C 476.277 402.943, 475.999 402.854, 475.998 403.083 M 291.556 414.750 C 291.882 416.262, 293.883 423.800, 296.002 431.500 C 301.449 451.298, 302.388 458.239, 301.637 473.168 C 301.287 480.135, 300.727 486.547, 300.393 487.418 C 299.857 488.816, 301.482 489, 314.393 489 L 329 489 329.012 474.750 C 329.019 465.833, 329.541 458.558, 330.405 455.310 C 331.165 452.456, 331.582 449.915, 331.331 449.665 C 331.081 449.414, 329.634 443.202, 328.117 435.860 L 325.359 422.511 321.430 421.861 C 319.268 421.503, 317.382 421.319, 317.237 421.452 C 316.857 421.800, 321.322 433.383, 324.860 441.224 C 326.639 445.169, 327.490 448.197, 326.918 448.550 C 325.855 449.207, 321.289 439.792, 316.986 428.069 L 314.258 420.638 308.379 418.998 C 305.145 418.096, 300.152 416.153, 297.283 414.679 C 294.414 413.206, 291.818 412, 291.514 412 C 291.210 412, 291.229 413.238, 291.556 414.750 M 328.370 425.250 C 328.701 426.488, 328.979 427.837, 328.986 428.250 C 329.007 429.373, 338.786 429.155, 339.490 428.015 C 340.366 426.599, 334.019 423.008, 330.633 423.004 C 328.148 423, 327.847 423.299, 328.370 425.250 M 339.978 432.567 C 338.460 437.166, 339.100 437.678, 342.602 434.666 C 345.044 432.566, 345.250 432.006, 344.095 430.615 C 342.109 428.221, 341.283 428.613, 339.978 432.567 M 330 432.135 C 330 435.187, 332.443 446, 333.133 446 C 333.566 446, 334.439 444.087, 335.073 441.750 C 335.707 439.413, 336.587 436.305, 337.028 434.844 C 337.702 432.614, 337.484 432.096, 335.665 431.608 C 332.250 430.692, 330 430.901, 330 432.135 M 335.947 446.615 C 332.064 455.660, 331 461.919, 331 475.710 L 331 489 363.750 488.941 C 389.492 488.895, 396.097 488.627, 394.619 487.691 C 390.047 484.797, 373.296 471.624, 359.582 460.138 L 344.664 447.644 340.556 452.379 C 335.439 458.278, 333.857 457.377, 338.546 451.236 C 340.446 448.748, 342 446.397, 342 446.011 C 342 445.626, 341.110 444.505, 340.022 443.520 C 338.090 441.771, 337.996 441.843, 335.947 446.615 M 470.829 450 C 470.619 452.200, 470.797 454, 471.224 454 C 471.651 454, 472 452.200, 472 450 C 472 447.800, 471.822 446, 471.605 446 C 471.388 446, 471.038 447.800, 470.829 450 M 456 460.649 C 454.625 460.856, 451.813 461.488, 449.750 462.053 L 446 463.080 446 486.880 L 446 510.679 448.750 511.939 C 455.555 515.056, 478.604 514.800, 483.561 511.552 L 486 509.954 486 487.099 C 486 469.710, 485.693 463.990, 484.716 463.179 C 481.957 460.890, 464.573 459.358, 456 460.649 M 336.200 464.200 C 332.770 467.630, 337.565 474.374, 341.815 472.099 C 344.638 470.588, 345.270 468.061, 343.500 465.359 C 341.833 462.816, 338.167 462.233, 336.200 464.200 M 449 464.947 C 449 466.723, 454.173 467.500, 466 467.500 C 477.827 467.500, 483 466.723, 483 464.947 C 483 464.289, 481.151 464.207, 477.750 464.716 C 474.863 465.147, 469.575 465.500, 466 465.500 C 462.425 465.500, 457.137 465.147, 454.250 464.716 C 450.849 464.207, 449 464.289, 449 464.947 M 338.207 466.250 C 336.725 468.036, 338.344 470.466, 340.473 469.649 C 342.269 468.959, 342.218 465.905, 340.400 465.300 C 339.795 465.098, 338.808 465.526, 338.207 466.250 M 488 473.392 C 488 474.157, 489.238 475.090, 490.750 475.466 C 497.131 477.049, 500.306 483.697, 498.138 490.934 C 496.833 495.291, 494.392 497.800, 490.948 498.326 C 487.446 498.860, 487.498 502.633, 491 502.168 C 497.764 501.271, 501.994 495.241, 501.990 486.500 C 501.987 479.960, 499.964 475.658, 495.810 473.353 C 492.664 471.607, 488 471.630, 488 473.392 M 488 487 C 488 495.911, 488.024 496, 490.477 496 C 493.904 496, 496.525 491.708, 496.404 486.293 C 496.293 481.336, 493.856 478, 490.345 478 C 488.059 478, 488 478.225, 488 487 M 64 490 C 64 490.644, 74.667 491, 94 491 C 113.333 491, 124 490.644, 124 490 C 124 489.356, 113.333 489, 94 489 C 74.667 489, 64 489.356, 64 490 M 510 490 C 510 490.646, 521.667 491, 543 491 C 564.333 491, 576 490.646, 576 490 C 576 489.354, 564.333 489, 543 489 C 521.667 489, 510 489.354, 510 490 M 267.667 499.667 C 267.300 500.033, 267 501.383, 267 502.667 L 267 505 296.345 505 C 323.504 505, 325.813 504.864, 327.345 503.171 C 331.027 499.103, 330.322 499, 298.667 499 C 281.983 499, 268.033 499.300, 267.667 499.667" stroke="none" fill="black" fill-rule="evenodd"/>
	<path fill-opacity="0.378" d="M 381.007 125.593 C 374.535 128.400, 369.941 134.470, 368.508 142.108 L 367.848 145.623 356.366 145.183 C 345.891 144.782, 344.166 144.982, 336.692 147.457 C 332.186 148.950, 325.800 151.921, 322.500 154.060 C 319.200 156.200, 314.492 159.199, 312.039 160.725 C 305.139 165.016, 297.607 172.469, 294.616 177.964 C 293.124 180.705, 291.216 186.223, 290.377 190.224 C 287.982 201.637, 289.760 211.041, 296.384 222 C 299.273 226.780, 299.927 229.185, 301.386 240.376 C 304.081 261.055, 307.950 269.897, 319.070 280.786 C 324.809 286.406, 330.668 289.747, 336.418 290.680 C 340.539 291.349, 340.960 292.430, 337.750 294.101 C 336.512 294.745, 333.206 297.212, 330.402 299.583 C 326.844 302.593, 320.700 305.853, 310.052 310.381 C 301.663 313.948, 293.069 318.012, 290.955 319.411 C 284.348 323.783, 282.893 327.325, 266.892 378 L 261.682 394.500 252.961 376.383 C 248.164 366.419, 243.671 357.915, 242.976 357.485 C 242.281 357.055, 240.453 356.740, 238.913 356.783 C 235.853 356.870, 235.015 355.107, 231.512 341.214 C 229.372 332.729, 228.303 331.187, 214.783 317.079 C 205.542 307.436, 202.583 304.921, 200.783 305.176 C 199.109 305.414, 198.412 306.266, 198.172 308.371 C 197.677 312.705, 198.645 315.382, 202.568 320.521 C 204.531 323.093, 205.925 325.409, 205.666 325.668 C 204.284 327.050, 191.191 319.901, 177.100 310.070 C 172.757 307.040, 167.703 306.053, 166.500 308 C 166.160 308.550, 164.614 309, 163.063 309 C 159.469 309, 157.205 311.498, 158.672 313.846 C 159.250 314.771, 159.518 316.922, 159.269 318.624 C 158.914 321.041, 159.492 322.490, 161.907 325.241 C 163.608 327.179, 165 329.319, 165 329.998 C 165 332.107, 171.885 340.736, 177.827 346.073 C 181.794 349.637, 187.789 353.244, 197.763 358.065 C 214.879 366.341, 215.933 367.607, 211.132 374.135 C 209.409 376.477, 208 379.420, 208 380.674 C 208 382.582, 209.986 388.560, 213.505 397.250 C 214.175 398.903, 211.321 399.001, 161.857 399.015 C 133.061 399.024, 109.005 399.361, 108.400 399.765 C 107.795 400.169, 106.755 401.534, 106.089 402.797 C 105.085 404.704, 105.307 406.569, 107.402 413.797 C 108.789 418.584, 114.227 437.800, 119.486 456.500 C 132.943 504.350, 132.734 503.701, 135.237 505.454 C 137.191 506.822, 148.268 507, 231.588 507 L 325.730 507 328.420 504.884 C 330.352 503.364, 331.024 502.025, 330.805 500.134 L 330.500 497.500 298.596 497 L 266.692 496.500 263.849 486.500 C 262.285 481, 261.004 476.275, 261.002 476 C 261.001 475.725, 263.813 475.498, 267.250 475.496 C 271.349 475.494, 274.804 474.846, 277.289 473.614 C 283.229 470.668, 290.195 463.811, 294.008 457.154 C 295.929 453.802, 297.802 451.046, 298.170 451.030 C 299.437 450.974, 300.274 464.400, 299.624 474.326 C 298.564 490.502, 300.276 489, 282.892 489 C 273.631 489, 268 489.378, 268 490 C 268 490.657, 290.621 491, 333.862 491 L 399.723 491 406.364 494.011 C 420.072 500.227, 430.266 500.378, 439.008 494.495 L 444 491.135 444 500.913 C 444 511.960, 444.556 512.996, 451.500 514.895 C 456.688 516.314, 474.865 516.315, 480.496 514.897 C 485.640 513.601, 487.707 511.618, 488.166 507.536 C 488.444 505.070, 489.068 504.456, 491.879 503.885 C 500.188 502.200, 504 496.912, 504 487.074 C 504 476.633, 498.969 470, 491.050 470 C 488.258 470, 488 469.717, 488 466.655 C 488 464.702, 487.250 462.631, 486.198 461.679 C 484.136 459.813, 473.492 458.049, 464.122 458.020 L 457.744 458 458.439 453.750 C 464.440 417.042, 465.507 374.435, 461.068 348.764 C 457.105 325.844, 455.159 323.890, 420 307.540 C 403.950 300.076, 403.336 299.677, 397.500 292.917 C 394.068 288.942, 390.139 285.472, 388.321 284.809 C 384.499 283.415, 384.031 281.944, 384.014 271.250 C 383.998 261.917, 384.729 261.218, 389.926 265.591 C 392.021 267.354, 393.205 269.432, 393.631 272.091 C 393.974 274.241, 394.707 276, 395.259 276 C 396.790 276, 395.328 268.921, 393.198 266.023 C 392.178 264.636, 390.364 263.055, 389.168 262.511 C 387.971 261.967, 387.107 261.248, 387.246 260.912 C 387.386 260.576, 391.166 257.036, 395.646 253.045 C 404.765 244.922, 405.307 243.924, 410.076 226.500 C 412.817 216.483, 413.348 212.847, 413.287 204.500 C 413.215 194.561, 411.096 185.005, 407.346 177.717 C 405.950 175.004, 405.999 174.898, 409.290 173.523 C 411.146 172.748, 414.255 170.354, 416.198 168.203 C 427.580 155.604, 420.378 134.425, 401.852 126.019 C 396.539 123.608, 386.077 123.394, 381.007 125.593 M 332.750 151.600 C 330.137 152.403, 328 153.193, 328 153.355 C 328 153.517, 332.872 153.449, 338.827 153.203 C 355.030 152.536, 366.826 156.582, 375.931 165.930 C 384.835 175.070, 389.941 187.871, 390.887 203.420 L 391.500 213.500 394.884 213.823 L 398.269 214.147 397.778 203.823 C 396.494 176.814, 381.355 156.237, 358.972 151.079 C 352.575 149.605, 338.316 149.888, 332.750 151.600 M 140.667 171.667 C 139.597 172.736, 139.899 183, 141 183 C 141.556 183, 142 180.333, 142 177 C 142 170.946, 141.877 170.456, 140.667 171.667 M 123.879 179.750 C 125.279 182.331, 130.886 187.448, 131.567 186.766 C 131.891 186.443, 130.493 184.338, 128.461 182.089 C 124.650 177.870, 122.174 176.606, 123.879 179.750 M 311.590 187.877 C 302.043 200.883, 299.822 210.704, 301.952 230.500 C 304.837 257.323, 308.350 267.103, 318.977 277.896 C 326.813 285.855, 333.777 289.423, 340.027 288.683 C 346.301 287.940, 354.458 283.920, 361.962 277.874 C 369.499 271.800, 371.520 272.417, 364.500 278.648 C 359.271 283.288, 347.072 290, 343.866 290 C 342.197 290, 341.999 290.870, 341.986 298.250 C 341.972 307.156, 341.317 311, 339.816 311 C 339.293 311, 339.151 310.100, 339.500 309 C 339.849 307.900, 339.707 307, 339.185 307 C 337.259 307, 329.165 336.383, 330.287 339.305 C 331.288 341.915, 343.209 345, 352.291 345 C 360.622 345, 372.637 342.656, 374.631 340.642 C 375.998 339.261, 381.112 323.695, 384.041 312.001 C 386.685 301.447, 386.795 296.047, 384.513 289 C 383.192 284.918, 382.702 279.955, 382.616 269.751 C 382.552 262.189, 382.365 256.001, 382.200 256.001 C 382.036 256, 380.236 257.638, 378.200 259.640 C 376.165 261.643, 371.575 264.654, 368 266.334 C 364.425 268.013, 361.013 270.033, 360.418 270.824 C 359.823 271.614, 357.078 272.478, 354.318 272.743 C 349.068 273.248, 347.317 271.944, 348.635 268.509 C 349.546 266.134, 356.544 264.418, 359.301 265.893 C 361.193 266.906, 362.380 266.766, 366.355 265.062 C 371.220 262.977, 383 252.673, 383 250.503 C 383 249.847, 382.117 248.511, 381.038 247.534 C 377.115 243.984, 375.312 231.388, 377.806 224.958 C 379.495 220.605, 377.252 218.145, 369.085 215.395 C 357.439 211.473, 345.750 203.019, 339.496 193.994 C 337.974 191.798, 336.341 190, 335.868 190 C 334.646 190, 338.422 199.529, 341.468 204.131 L 344.028 208 341.711 208 C 334.327 208, 321.504 197.003, 318.270 187.897 C 317.313 185.204, 316.225 183, 315.850 183 C 315.476 183, 313.559 185.195, 311.590 187.877 M 115 194.076 C 115 195.020, 116.971 195.624, 123 196.530 C 125.903 196.966, 127.145 196.863, 126.500 196.240 C 125.188 194.972, 115 193.056, 115 194.076 M 141.381 194.895 C 136.483 197.905, 136 200.845, 136 227.681 C 136 246.826, 136.314 252.817, 137.464 255.568 C 140.012 261.667, 141.978 261.995, 176.218 262.038 L 206.500 262.077 217 270.536 C 222.775 275.188, 227.891 278.996, 228.368 278.997 C 228.846 278.999, 228.922 275.229, 228.538 270.620 L 227.840 262.239 238.038 261.829 C 248.052 261.427, 248.288 261.362, 251.118 258.194 L 254 254.968 254 227.500 L 254 200.032 251.083 196.766 L 248.165 193.500 196.333 193.239 C 146.749 192.989, 144.365 193.061, 141.381 194.895 M 140.923 197.923 L 138 200.846 138 226.989 C 138 243.007, 138.399 253.877, 139.030 255.055 C 141.499 259.669, 143.998 260, 176.399 260 L 206.897 260 217.103 268.131 L 227.309 276.262 226.631 268.131 L 225.953 260 235.961 260 C 245.603 260, 246.088 259.894, 249.234 257.084 L 252.500 254.167 252.819 230.356 C 252.994 217.259, 252.852 205.023, 252.503 203.163 C 252.154 201.304, 250.707 198.707, 249.288 197.391 L 246.708 195 195.277 195 L 143.846 195 140.923 197.923 M 342.250 213.662 C 339.266 214.866, 341.446 215.595, 346.860 215.204 C 350.120 214.968, 353.643 215.274, 354.799 215.893 C 355.997 216.533, 357.116 216.621, 357.438 216.100 C 358.717 214.031, 346.283 212.035, 342.250 213.662 M 307.179 215.521 C 305.353 216.314, 304.139 217.416, 304.482 217.970 C 304.872 218.602, 306.025 218.375, 307.573 217.360 C 309.266 216.251, 311.292 215.910, 314.021 216.276 C 318.257 216.844, 319.521 215.641, 315.750 214.630 C 312.459 213.748, 310.883 213.912, 307.179 215.521 M 388.490 219.310 C 380.443 227.357, 381.995 245.257, 391.066 249.025 C 397.974 251.893, 405.360 243.352, 405.357 232.500 C 405.355 225.272, 402.888 219.510, 398.915 217.456 C 394.625 215.238, 392.116 215.684, 388.490 219.310 M 391.073 224.635 C 387.264 229.477, 388.907 242.599, 393.545 244.379 C 395.882 245.276, 397 245.145, 397 243.975 C 397 243.412, 395.914 242.537, 394.586 242.033 C 391.859 240.996, 390.727 238.293, 390.727 232.815 C 390.727 228.642, 393.253 224, 395.523 224 C 396.335 224, 397 223.550, 397 223 C 397 220.992, 393.090 222.071, 391.073 224.635 M 173.250 224.662 C 171.115 225.524, 171.727 230.778, 174.048 231.515 C 178.265 232.854, 180.940 227.109, 177.066 225.035 C 176.002 224.466, 174.989 224.036, 174.816 224.079 C 174.642 224.122, 173.938 224.385, 173.250 224.662 M 193.250 224.662 C 191.115 225.524, 191.727 230.778, 194.048 231.515 C 198.265 232.854, 200.940 227.109, 197.066 225.035 C 196.002 224.466, 194.989 224.036, 194.816 224.079 C 194.642 224.122, 193.938 224.385, 193.250 224.662 M 212.571 225.571 C 211.707 226.436, 211 227.529, 211 228 C 211 229.353, 214.001 232, 215.536 232 C 216.732 232, 219 229.144, 219 227.637 C 219 226.807, 215.913 224, 215 224 C 214.529 224, 213.436 224.707, 212.571 225.571 M 346.390 226.427 C 345.288 229.297, 346.452 232.493, 348.715 232.815 C 350.388 233.053, 351.087 232.500, 351.576 230.552 C 352.611 226.429, 347.844 222.637, 346.390 226.427 M 312.046 227.445 C 310.193 229.678, 311.152 233.450, 313.664 233.808 C 316.313 234.186, 317.610 231.008, 316.020 228.038 C 314.732 225.630, 313.682 225.473, 312.046 227.445 M 324.750 240.958 C 322.500 248.614, 322.543 249.567, 325.223 251.443 C 328.890 254.012, 330.901 253.256, 327.594 250.552 L 324.687 248.175 326.344 242.272 C 328.221 235.580, 328.294 234.999, 327.250 235.001 C 326.837 235.002, 325.712 237.683, 324.750 240.958 M 331.750 260.745 C 322.149 261.110, 321.759 261.452, 324.960 266.701 C 327.106 270.223, 331.628 273.002, 335.200 272.996 C 338.767 272.990, 343.489 269.597, 345.330 265.717 C 347.682 260.760, 347.456 259.971, 343.750 260.206 C 341.962 260.319, 336.563 260.561, 331.750 260.745 M 332.750 262.742 C 329.007 262.936, 326 263.551, 326 264.123 C 326 266.224, 331.874 271, 334.458 271 C 337.887 271, 341.741 268.402, 343.577 264.852 C 345.033 262.036, 345.016 262.002, 342.276 262.196 C 340.749 262.304, 336.462 262.549, 332.750 262.742 M 386 288.378 C 386 289.685, 386.706 291.341, 387.569 292.057 C 389.402 293.578, 388.994 298.535, 385.956 311.694 C 382.622 326.133, 369.913 363.098, 358.012 392.970 C 354.790 401.056, 354.176 403.495, 355.195 404.142 C 356.845 405.188, 357.169 405.178, 358.988 404.029 C 360.032 403.369, 361.724 403.821, 364.666 405.544 C 366.970 406.895, 369.121 408, 369.444 408 C 370.686 408, 401.059 359.077, 400.961 357.234 C 400.939 356.830, 397.777 354.062, 393.934 351.081 C 390.090 348.101, 387.093 345.220, 387.274 344.679 C 387.454 344.137, 391.629 342.163, 396.551 340.291 C 401.473 338.419, 405.918 336.472, 406.429 335.964 C 407.314 335.086, 403.042 308.417, 400.908 301.500 C 399.893 298.209, 389.084 286, 387.185 286 C 386.533 286, 386 287.070, 386 288.378 M 333.527 299.741 C 329.213 303.102, 310 328.400, 310 330.719 C 310 331.194, 312.025 333.571, 314.500 336 C 316.975 338.429, 319 340.720, 319 341.091 C 319 341.462, 316.007 343.730, 312.349 346.133 C 308.690 348.535, 305.313 350.753, 304.843 351.063 C 303.435 351.990, 308.342 383.057, 310.041 383.972 C 311.699 384.865, 323 385.920, 323 385.182 C 323 384.916, 320.266 382.138, 316.925 379.007 C 311.492 373.916, 310.884 372.955, 311.175 369.908 C 311.596 365.494, 314.275 365.019, 319.342 368.457 C 321.403 369.856, 323.241 371, 323.427 371 C 323.613 371, 324.072 367.512, 324.447 363.250 C 325.507 351.200, 327.927 336.412, 330.543 326 C 333.030 316.102, 337.295 304.305, 339.007 302.593 C 340.210 301.390, 340.338 296, 339.164 296 C 338.704 296, 336.167 297.683, 333.527 299.741 M 403.642 302.809 C 403.259 303.466, 405.453 315.901, 408.440 329.995 C 409.197 333.567, 409.670 336.725, 409.491 337.014 C 409.313 337.303, 404.855 339.105, 399.584 341.020 C 394.314 342.934, 390.114 344.774, 390.251 345.109 C 390.388 345.444, 393.313 348.048, 396.750 350.895 C 400.188 353.743, 403 356.530, 403 357.089 C 403 358.591, 391.985 377.431, 381.333 394.146 C 376.200 402.202, 372.019 409.177, 372.042 409.646 C 372.125 411.326, 407.011 434.141, 407.447 432.800 C 407.679 432.085, 408.807 422.050, 409.953 410.500 C 412.596 383.878, 413.010 381, 414.201 381 C 414.769 381, 414.921 382.565, 414.566 384.750 C 413.306 392.502, 409.210 434.530, 409.645 435.235 C 409.895 435.639, 413.177 437.767, 416.938 439.964 C 423.808 443.976, 433 452.962, 433 455.665 C 433 456.462, 430.523 454.438, 427.495 451.168 C 424.467 447.898, 418.730 443.291, 414.745 440.930 C 410.760 438.569, 397.306 429.744, 384.846 421.319 C 372.386 412.893, 361.781 406, 361.279 406 C 360.776 406, 359.561 408.587, 358.578 411.750 C 355.822 420.620, 351.027 428.881, 345.127 434.925 L 339.753 440.430 342.709 442.965 C 384.971 479.210, 400.290 490.418, 413.718 494.917 C 424.469 498.518, 432.596 497.461, 440.500 491.433 L 444 488.763 444 475.440 C 444 466.666, 444.383 461.881, 445.123 461.424 C 445.740 461.042, 448.328 460.201, 450.873 459.555 L 455.500 458.380 456.702 452.440 C 461.047 430.961, 463.397 381.567, 461.042 361.203 C 458.368 338.085, 455.095 329.226, 447.229 323.813 C 441.601 319.941, 404.170 301.903, 403.642 302.809 M 200.146 307.727 C 198.769 310.300, 200.990 316.002, 205.355 321.102 C 208.936 325.285, 209.771 327.406, 208.215 328.367 C 206.472 329.445, 191.882 322.467, 182.238 315.942 C 173.094 309.756, 167.993 307.537, 168.004 309.750 C 168.010 310.963, 178.925 319.418, 186.500 324.078 C 195.079 329.356, 194.456 328.877, 193.712 329.621 C 192.753 330.580, 182.752 324.588, 173.394 317.447 C 168.115 313.420, 163.989 311, 162.399 311 C 158.515 311, 159.758 314.141, 164.513 316.342 C 166.706 317.356, 170.075 319.669, 172 321.482 C 175.585 324.857, 187.688 333.372, 190.136 334.242 C 190.886 334.508, 191.165 335.085, 190.756 335.524 C 189.710 336.645, 184.008 333.404, 176.180 327.239 C 164.151 317.766, 161 316.225, 161 319.813 C 161 322.413, 166.168 327, 169.097 327 C 170.735 327, 173.105 328.563, 176.042 331.580 C 178.494 334.099, 182.412 337.291, 184.750 338.675 C 187.088 340.058, 189 341.606, 189 342.115 C 189 343.860, 180.647 338.779, 175.477 333.890 C 170.590 329.268, 167 327.661, 167 330.096 C 167 332.172, 176.513 342.698, 182.603 347.361 C 185.959 349.931, 194.059 354.394, 200.603 357.279 L 212.500 362.524 215.653 368.722 C 217.388 372.131, 218.983 375.448, 219.197 376.092 C 219.475 376.925, 220.589 376.758, 223.044 375.516 C 228.490 372.760, 237 366.074, 237 364.551 C 237 363.789, 236.053 360.991, 234.896 358.333 C 233.738 355.675, 231.920 349.909, 230.856 345.520 C 228.231 334.698, 226.073 331.402, 212.654 317.721 C 202.686 307.558, 200.970 306.187, 200.146 307.727 M 308 313.182 C 300.575 316.503, 293.138 320.242, 291.474 321.490 C 285.693 325.827, 284.040 330.006, 268.052 380.709 L 262.940 396.917 268.108 407.209 C 273.664 418.274, 277.394 428, 276.082 428 C 275.636 428, 274.458 425.863, 273.463 423.250 C 272.468 420.637, 265.958 407.025, 258.996 393 C 252.035 378.975, 245.758 366.038, 245.048 364.250 C 243.504 360.363, 242.760 360.211, 241.037 363.430 C 237.992 369.121, 219.264 381, 213.337 381 C 212.117 381, 210.863 381.413, 210.551 381.917 C 210.240 382.421, 211.409 386.471, 213.149 390.917 L 216.313 399 226.702 399 C 240.194 399, 240.443 399.233, 244.859 416 C 254.406 452.243, 260.239 472.532, 261.306 473.210 C 261.963 473.628, 264.750 473.972, 267.500 473.975 C 276.681 473.986, 286.738 466.103, 294.557 452.766 L 297.918 447.033 295.955 439.766 C 290.326 418.925, 289 413.558, 289 411.612 C 289 410.440, 288.067 408.898, 286.927 408.186 C 285.787 407.474, 284.081 405.167, 283.138 403.059 C 282.194 400.950, 279.977 398.010, 278.211 396.524 C 276.319 394.932, 275 392.882, 275 391.534 C 275 390.275, 274.325 388.685, 273.500 388 C 270.600 385.593, 272.372 381, 276.200 381 C 277.190 381, 278.931 380.069, 280.068 378.932 C 281.492 377.508, 283.127 376.963, 285.318 377.182 L 288.500 377.500 289.940 367.250 C 290.731 361.613, 291.744 357, 292.190 357 C 293.255 357, 293.207 357.880, 291.566 368.500 C 290.350 376.370, 290.361 377.645, 291.650 378.656 C 293.346 379.985, 305.808 383.525, 306.468 382.865 C 306.710 382.624, 306.262 378.843, 305.474 374.463 C 304.686 370.083, 303.755 362.675, 303.406 358 L 302.771 349.500 309.383 345.500 C 313.020 343.300, 315.996 341.187, 315.998 340.805 C 315.999 340.423, 313.896 338.122, 311.324 335.692 L 306.648 331.274 314.824 319.748 C 319.321 313.409, 323 307.948, 323 307.611 C 323 306.559, 321.852 306.986, 308 313.182 M 435.737 333.095 C 429.082 338.799, 420.689 350.846, 418.559 357.750 C 417.482 361.243, 419.597 360.399, 421.066 356.750 C 423.792 349.981, 430.395 340.816, 436.725 335.015 C 444.042 328.310, 443.210 326.691, 435.737 333.095 M 196.553 342.915 C 196.276 343.363, 199.021 344.033, 202.654 344.406 C 209.180 345.074, 213.846 346.791, 217.250 349.776 C 218.823 351.155, 219 351.155, 219 349.770 C 219 347.919, 215.773 345.689, 211 344.242 C 206.110 342.760, 197.157 341.937, 196.553 342.915 M 328.568 345.166 C 327.096 354.019, 327.174 354.289, 331.500 355.333 C 335.925 356.400, 368.452 356.866, 369.451 355.877 C 370.096 355.237, 374 344.996, 374 343.941 C 374 343.618, 370.738 344.207, 366.750 345.249 C 355.418 348.210, 341.695 347.180, 330.811 342.551 C 329.466 341.979, 329.009 342.513, 328.568 345.166 M 326.445 361.521 C 326.063 364.067, 326.144 366.523, 326.625 366.979 C 327.725 368.021, 345.967 370, 354.474 370 C 363.163 370, 365.364 368.997, 366.878 364.346 C 367.567 362.231, 368.326 360.050, 368.566 359.500 C 368.845 358.861, 364.042 358.500, 355.251 358.500 C 347.688 358.500, 338.269 358.138, 334.319 357.696 L 327.139 356.893 326.445 361.521 M 238.345 359.543 C 238.019 360.392, 238.023 361.356, 238.352 361.686 C 239.217 362.550, 242.083 359.944, 241.430 358.887 C 240.576 357.506, 238.998 357.842, 238.345 359.543 M 313 370.320 C 313 371.886, 315.282 374.830, 320.021 379.381 C 323.883 383.088, 326.808 386.502, 326.521 386.966 C 325.453 388.695, 307.503 385.827, 294.325 381.821 C 284.478 378.828, 280.441 378.653, 281.198 381.251 C 281.682 382.913, 294.753 389.238, 303.500 392.042 C 310.581 394.312, 313.726 396, 310.875 396 C 308.163 396, 294.861 391.104, 286.253 386.937 C 277.780 382.836, 274.500 382.299, 274.500 385.014 C 274.500 386.963, 291.169 396.130, 301.183 399.688 C 305.483 401.216, 309 402.811, 309 403.233 C 309 403.655, 308.604 404, 308.119 404 C 306.308 404, 293.685 398.864, 286.002 395.001 C 277.013 390.481, 274.801 389.995, 277.595 393.153 C 280.845 396.825, 293.260 404.380, 300.293 406.965 C 306.167 409.125, 308.861 411, 306.089 411 C 304.719 411, 288.776 404.059, 287.266 402.805 C 286.543 402.206, 285.625 402.048, 285.226 402.455 C 284.115 403.587, 290.742 408.771, 298.060 412.495 C 306.256 416.666, 313.003 418.604, 324.500 420.086 C 335.418 421.495, 337.259 422.152, 342.642 426.563 L 346.848 430.009 348.902 427.398 C 351.493 424.103, 355.874 414.903, 356.583 411.266 C 357.018 409.031, 356.455 407.876, 353.647 405.250 C 351.736 403.462, 348.483 398.962, 346.419 395.250 C 344.356 391.537, 341.560 387.032, 340.206 385.239 C 337.871 382.143, 316.460 368, 314.109 368 C 313.499 368, 313 369.044, 313 370.320 M 326.054 371.190 C 326.083 371.910, 329.477 374.637, 333.595 377.250 L 341.083 382 350.528 382 L 359.973 382 361.367 378.663 C 364.722 370.634, 365.176 371.140, 354.792 371.330 C 349.681 371.424, 341.113 371.135, 335.750 370.690 C 327.955 370.042, 326.011 370.142, 326.054 371.190 M 212.068 375.904 C 209.364 379.702, 209.455 380.167, 212.750 379.390 C 216.492 378.508, 217.317 377.573, 216.532 375.101 C 215.630 372.258, 214.523 372.457, 212.068 375.904 M 345.032 388.897 C 349.599 396.320, 354.572 396.869, 356.953 390.215 C 357.684 388.172, 358.492 385.938, 358.748 385.250 C 359.098 384.311, 357.076 384, 350.616 384 L 342.018 384 345.032 388.897 M 350.015 397.250 C 350.024 397.938, 350.474 399.175, 351.015 400 C 351.891 401.333, 352.109 401.333, 352.985 400 C 354.556 397.607, 354.160 396, 352 396 C 350.900 396, 350.007 396.563, 350.015 397.250 M 107.978 403.041 C 107.095 404.690, 108.543 410.966, 115.533 435.791 C 120.289 452.681, 126.362 474.310, 129.030 483.855 C 131.697 493.400, 134.652 502.063, 135.595 503.105 C 137.244 504.927, 139.725 504.999, 199.905 504.985 C 234.697 504.976, 263.124 504.574, 263.905 504.080 C 266.162 502.651, 265.490 498.926, 258.114 472 C 254.272 457.975, 248.599 437.056, 245.506 425.514 C 242.414 413.972, 239.165 403.735, 238.287 402.764 C 236.793 401.114, 232.580 401, 172.880 401 C 109.670 401, 109.060 401.019, 107.978 403.041 M 291.423 415.267 C 291.794 417.595, 293.822 425.350, 295.931 432.500 C 301.816 452.450, 303.203 469.208, 300.340 485.750 L 299.777 489 314.389 489 L 329 489 329.015 475.750 C 329.024 467.781, 329.602 460.073, 330.466 456.411 C 331.673 451.291, 331.691 449.621, 330.581 445.911 C 329.855 443.485, 328.483 437.163, 327.533 431.862 L 325.804 422.224 321.769 421.579 C 319.549 421.224, 317.524 421.143, 317.269 421.398 C 316.730 421.937, 319.855 430.540, 324.140 440.311 C 325.782 444.057, 326.923 447.657, 326.675 448.311 C 326.179 449.617, 324.794 446.716, 318.414 431.008 L 314.153 420.516 308.697 418.896 C 305.697 418.006, 300.431 415.872, 296.996 414.156 L 290.750 411.035 291.423 415.267 M 328.184 425.750 C 328.469 428.231, 328.968 428.554, 333.293 429.051 C 339.793 429.798, 341.491 427.879, 336.839 425.043 C 335.003 423.924, 332.233 423.006, 330.684 423.004 C 328.200 423, 327.905 423.325, 328.184 425.750 M 340.161 431.547 C 337.671 437.010, 339.159 438.588, 342.972 434.529 C 344.898 432.480, 345.077 431.798, 344.024 430.529 C 342.261 428.404, 341.501 428.605, 340.161 431.547 M 329.361 432.750 C 329.634 433.712, 330.411 437.087, 331.088 440.250 C 332.842 448.450, 333.738 447.954, 336.593 437.201 C 337.367 434.287, 338 431.699, 338 431.451 C 338 431.203, 335.945 431, 333.433 431 C 329.560 431, 328.941 431.266, 329.361 432.750 M 334.417 449.250 C 331.833 455.908, 331.571 457.824, 331.216 472.723 L 330.829 488.946 363.415 489.223 C 381.337 489.375, 395.888 489.223, 395.751 488.885 C 395.613 488.547, 391 484.881, 385.500 480.738 C 376.833 474.211, 352.520 454.377, 346.447 448.880 C 344.420 447.045, 344.345 447.086, 340.490 452.141 C 338.343 454.956, 336.412 456.737, 336.199 456.098 C 335.986 455.459, 337.504 452.871, 339.572 450.347 L 343.332 445.759 340.916 443.902 C 339.587 442.880, 338.215 442.034, 337.866 442.022 C 337.517 442.010, 335.965 445.262, 334.417 449.250 M 451 461.273 L 446.500 462.500 446.500 486.996 L 446.500 511.491 450.500 512.927 C 456.356 515.029, 477.285 514.898, 482.268 512.728 L 486.036 511.087 485.768 487.306 L 485.500 463.526 482.500 462.067 C 478.516 460.130, 457.164 459.592, 451 461.273 M 336.571 464.571 C 333.360 467.783, 335.871 472.368, 340.549 471.836 C 342.941 471.564, 343.561 470.967, 343.822 468.690 C 344.399 463.657, 339.990 461.153, 336.571 464.571 M 449 464.838 C 449 465.427, 450.688 466.267, 452.750 466.705 C 457.544 467.721, 474.348 467.708, 479.278 466.684 C 485.086 465.477, 482.756 464.133, 476.773 465.240 C 471.478 466.219, 455.454 465.722, 451.250 464.448 C 449.893 464.037, 449 464.192, 449 464.838 M 337.570 466.678 C 337.216 467.600, 337.554 468.982, 338.320 469.749 C 339.512 470.941, 339.957 470.900, 341.392 469.465 C 342.689 468.168, 342.807 467.473, 341.912 466.394 C 340.346 464.507, 338.353 464.637, 337.570 466.678 M 488.720 471.613 C 487.017 473.316, 488.038 476, 490.389 476 C 495.611 476, 498.972 481.881, 498.200 489.666 C 497.798 493.716, 493.865 498, 490.548 498 C 488.497 498, 488 498.488, 488 500.500 C 488 502.124, 488.560 503, 489.599 503 C 492.880 503, 498.041 499.670, 500.218 496.148 C 504.413 489.360, 502.556 477.346, 496.729 473.577 C 493.863 471.723, 489.644 470.689, 488.720 471.613 M 488.425 478.334 C 488.144 479.067, 488.046 483.455, 488.207 488.084 C 488.478 495.864, 488.651 496.475, 490.500 496.174 C 493.880 495.623, 496.193 492.465, 496.735 487.660 C 497.196 483.568, 496.934 482.780, 494.202 480.048 C 490.897 476.744, 489.226 476.248, 488.425 478.334 M 64.425 490.121 C 64.117 490.619, 76.982 491, 94.108 491 C 110.732 491, 124.046 490.712, 123.694 490.361 C 122.698 489.365, 65.037 489.131, 64.425 490.121 M 510.405 490.153 C 510.117 490.619, 524.785 491, 543 491 C 561.215 491, 575.887 490.627, 575.606 490.171 C 574.929 489.076, 511.082 489.059, 510.405 490.153 M 266.787 502 L 266.346 505 296.638 505 C 325.563 505, 326.976 504.913, 327.965 503.066 C 328.534 502.002, 329 500.652, 329 500.066 C 329 499.334, 319.308 499, 298.113 499 L 267.227 499 266.787 502" stroke="none" fill="black" fill-rule="evenodd"/>
</svg>