<svg xmlns="http://www.w3.org/2000/svg" viewBox="0 0 120 120" fill="none" stroke="#333333" stroke-width="1.5" stroke-linecap="round" stroke-linejoin="round">
  <!-- Left hand -->
  <path d="M20 62 L38 62 C40 62 42 60 42 58 L42 54 C42 52 44 50 46 50 L54 50"/>
  <path d="M20 62 L20 74 L38 74 L46 68"/>
  <!-- Right hand -->
  <path d="M100 62 L82 62 C80 62 78 60 78 58 L78 54 C78 52 76 50 74 50 L66 50"/>
  <path d="M100 62 L100 74 L82 74 L74 68"/>
  <!-- Handshake clasp -->
  <path d="M54 50 L60 56 L66 50"/>
  <path d="M46 68 L54 62 L66 62 L74 68"/>
  <!-- Left sleeve -->
  <path d="M15 58 L15 78 L25 78 L25 58 Z"/>
  <!-- Right sleeve -->
  <path d="M95 58 L95 78 L105 78 L105 58 Z"/>
  <!-- Fingers interlocking -->
  <path d="M52 56 L56 60"/>
  <path d="M64 56 L68 60"/>
</svg>
